<svg width="183" height="284" viewBox="0 0 183 284" fill="none" xmlns="http://www.w3.org/2000/svg">
<rect x="5" y="47" width="177" height="213" fill="#FEFEFE"/>
<line x1="4.00055" y1="52" x2="183.001" y2="52.0198" stroke="black" stroke-width="10"/>
<line x1="4.99802" y1="260.48" x2="182.997" y2="259.777" stroke="black"/>
<line x1="4.99802" y1="209.48" x2="182.997" y2="208.777" stroke="black"/>
<line x1="3.99802" y1="107.48" x2="181.997" y2="106.777" stroke="black"/>
<path d="M5 158.704L182.999 158" stroke="black"/>
<line x1="146.5" y1="56.9975" x2="147.505" y2="259.995" stroke="black"/>
<line x1="182.5" y1="56" x2="182.5" y2="260" stroke="black"/>
<line x1="4.5" y1="56.9982" x2="5.22597" y2="260.997" stroke="black"/>
<line x1="40.5" y1="56" x2="40.5" y2="260" stroke="black"/>
<line x1="75.5" y1="55.9986" x2="76.0862" y2="259.998" stroke="black"/>
<line x1="111.5" y1="55" x2="111.5" y2="260" stroke="black"/>
<path d="M5.10742 271.588L6.88477 268.434H9.90234L6.89453 273.609L10.0293 279H7.00195L5.11719 275.68L3.24219 279H0.205078L3.33984 273.609L0.341797 268.434H3.36914L5.10742 271.588Z" fill="black"/>
<circle cx="76" cy="132" r="13" fill="black"/>
<path d="M77.6934 136H76V129.473L73.9785 130.1V128.723L77.5117 127.457H77.6934V136Z" fill="#FEFEFE"/>
<circle cx="146" cy="132" r="13" fill="black"/>
<path d="M145.303 130.984H146.205C146.635 130.984 146.953 130.877 147.16 130.662C147.367 130.447 147.471 130.162 147.471 129.807C147.471 129.463 147.367 129.195 147.16 129.004C146.957 128.812 146.676 128.717 146.316 128.717C145.992 128.717 145.721 128.807 145.502 128.986C145.283 129.162 145.174 129.393 145.174 129.678H143.48C143.48 129.232 143.6 128.834 143.838 128.482C144.08 128.127 144.416 127.85 144.846 127.65C145.279 127.451 145.756 127.352 146.275 127.352C147.178 127.352 147.885 127.568 148.396 128.002C148.908 128.432 149.164 129.025 149.164 129.783C149.164 130.174 149.045 130.533 148.807 130.861C148.568 131.189 148.256 131.441 147.869 131.617C148.35 131.789 148.707 132.047 148.941 132.391C149.18 132.734 149.299 133.141 149.299 133.609C149.299 134.367 149.021 134.975 148.467 135.432C147.916 135.889 147.186 136.117 146.275 136.117C145.424 136.117 144.727 135.893 144.184 135.443C143.645 134.994 143.375 134.4 143.375 133.662H145.068C145.068 133.982 145.188 134.244 145.426 134.447C145.668 134.65 145.965 134.752 146.316 134.752C146.719 134.752 147.033 134.646 147.26 134.436C147.49 134.221 147.605 133.938 147.605 133.586C147.605 132.734 147.137 132.309 146.199 132.309H145.303V130.984Z" fill="#FEFEFE"/>
<path d="M92.7344 27.7266H83.4883L81.7305 33H76.123L85.6504 7.40625H90.5371L100.117 33H94.5098L92.7344 27.7266ZM84.9121 23.4551H91.3105L88.0938 13.875L84.9121 23.4551ZM119.365 10.2539L109.469 33H104.107L114.021 11.5195H101.295V7.40625H119.365V10.2539Z" fill="black"/>
</svg>
