<svg width="183" height="284" viewBox="0 0 183 284" fill="none" xmlns="http://www.w3.org/2000/svg">
<rect x="5" y="47" width="177" height="213" fill="#FEFEFE"/>
<line x1="4.00055" y1="52" x2="183.001" y2="52.0198" stroke="black" stroke-width="10"/>
<line x1="4.99802" y1="260.48" x2="182.997" y2="259.777" stroke="black"/>
<line x1="4.99802" y1="209.48" x2="182.997" y2="208.777" stroke="black"/>
<line x1="3.99802" y1="107.48" x2="181.997" y2="106.777" stroke="black"/>
<path d="M5 158.704L182.999 158" stroke="black"/>
<line x1="146.5" y1="56.9975" x2="147.505" y2="259.995" stroke="black"/>
<line x1="182.5" y1="56" x2="182.5" y2="260" stroke="black"/>
<line x1="4.5" y1="56.9982" x2="5.22597" y2="260.997" stroke="black"/>
<line x1="40.5" y1="56" x2="40.5" y2="260" stroke="black"/>
<line x1="75.5" y1="55.9986" x2="76.0862" y2="259.998" stroke="black"/>
<line x1="111.5" y1="55" x2="111.5" y2="260" stroke="black"/>
<path d="M5.10742 271.588L6.88477 268.434H9.90234L6.89453 273.609L10.0293 279H7.00195L5.11719 275.68L3.24219 279H0.205078L3.33984 273.609L0.341797 268.434H3.36914L5.10742 271.588Z" fill="black"/>
<circle cx="146" cy="81" r="13" fill="black"/>
<path d="M147.693 85H146V78.4727L143.979 79.0996V77.7227L147.512 76.457H147.693V85Z" fill="#FEFEFE"/>
<circle cx="76" cy="132" r="13" fill="black"/>
<path d="M79.4277 136H73.5801V134.84L76.3398 131.898C76.7188 131.484 76.998 131.123 77.1777 130.814C77.3613 130.506 77.4531 130.213 77.4531 129.936C77.4531 129.557 77.3574 129.26 77.166 129.045C76.9746 128.826 76.7012 128.717 76.3457 128.717C75.9629 128.717 75.6602 128.85 75.4375 129.115C75.2188 129.377 75.1094 129.723 75.1094 130.152H73.4102C73.4102 129.633 73.5332 129.158 73.7793 128.729C74.0293 128.299 74.3809 127.963 74.834 127.721C75.2871 127.475 75.8008 127.352 76.375 127.352C77.2539 127.352 77.9355 127.562 78.4199 127.984C78.9082 128.406 79.1523 129.002 79.1523 129.771C79.1523 130.193 79.043 130.623 78.8242 131.061C78.6055 131.498 78.2305 132.008 77.6992 132.59L75.7598 134.635H79.4277V136Z" fill="#FEFEFE"/>
<circle cx="111" cy="132" r="13" fill="black"/>
<path d="M110.303 130.984H111.205C111.635 130.984 111.953 130.877 112.16 130.662C112.367 130.447 112.471 130.162 112.471 129.807C112.471 129.463 112.367 129.195 112.16 129.004C111.957 128.812 111.676 128.717 111.316 128.717C110.992 128.717 110.721 128.807 110.502 128.986C110.283 129.162 110.174 129.393 110.174 129.678H108.48C108.48 129.232 108.6 128.834 108.838 128.482C109.08 128.127 109.416 127.85 109.846 127.65C110.279 127.451 110.756 127.352 111.275 127.352C112.178 127.352 112.885 127.568 113.396 128.002C113.908 128.432 114.164 129.025 114.164 129.783C114.164 130.174 114.045 130.533 113.807 130.861C113.568 131.189 113.256 131.441 112.869 131.617C113.35 131.789 113.707 132.047 113.941 132.391C114.18 132.734 114.299 133.141 114.299 133.609C114.299 134.367 114.021 134.975 113.467 135.432C112.916 135.889 112.186 136.117 111.275 136.117C110.424 136.117 109.727 135.893 109.184 135.443C108.645 134.994 108.375 134.4 108.375 133.662H110.068C110.068 133.982 110.188 134.244 110.426 134.447C110.668 134.65 110.965 134.752 111.316 134.752C111.719 134.752 112.033 134.646 112.26 134.436C112.49 134.221 112.605 133.938 112.605 133.586C112.605 132.734 112.137 132.309 111.199 132.309H110.303V130.984Z" fill="#FEFEFE"/>
<path d="M83.7344 27.7266H74.4883L72.7305 33H67.123L76.6504 7.40625H81.5371L91.1172 33H85.5098L83.7344 27.7266ZM75.9121 23.4551H82.3105L79.0938 13.875L75.9121 23.4551ZM97.0938 13.9805L97.252 16.1074C98.5996 14.4551 100.422 13.6289 102.719 13.6289C105.168 13.6289 106.85 14.5957 107.764 16.5293C109.1 14.5957 111.004 13.6289 113.477 13.6289C115.539 13.6289 117.074 14.2324 118.082 15.4395C119.09 16.6348 119.594 18.4395 119.594 20.8535V33H114.496V20.8711C114.496 19.793 114.285 19.0078 113.863 18.5156C113.441 18.0117 112.697 17.7598 111.631 17.7598C110.107 17.7598 109.053 18.4863 108.467 19.9395L108.484 33H103.404V20.8887C103.404 19.7871 103.188 18.9902 102.754 18.498C102.32 18.0059 101.582 17.7598 100.539 17.7598C99.0977 17.7598 98.0547 18.3574 97.4102 19.5527V33H92.3301V13.9805H97.0938Z" fill="black"/>
</svg>
