<svg width="183" height="288" viewBox="0 0 183 288" fill="none" xmlns="http://www.w3.org/2000/svg">
<path d="M71.7344 27.7266H62.4883L60.7305 33H55.123L64.6504 7.40625H69.5371L79.1172 33H73.5098L71.7344 27.7266ZM63.9121 23.4551H70.3105L67.0938 13.875L63.9121 23.4551ZM85.0938 13.9805L85.252 16.1074C86.5996 14.4551 88.4219 13.6289 90.7188 13.6289C93.168 13.6289 94.8496 14.5957 95.7637 16.5293C97.0996 14.5957 99.0039 13.6289 101.477 13.6289C103.539 13.6289 105.074 14.2324 106.082 15.4395C107.09 16.6348 107.594 18.4395 107.594 20.8535V33H102.496V20.8711C102.496 19.793 102.285 19.0078 101.863 18.5156C101.441 18.0117 100.697 17.7598 99.6309 17.7598C98.1074 17.7598 97.0527 18.4863 96.4668 19.9395L96.4844 33H91.4043V20.8887C91.4043 19.7871 91.1875 18.9902 90.7539 18.498C90.3203 18.0059 89.582 17.7598 88.5391 17.7598C87.0977 17.7598 86.0547 18.3574 85.4102 19.5527V33H80.3301V13.9805H85.0938ZM128.705 10.2539L118.809 33H113.447L123.361 11.5195H110.635V7.40625H128.705V10.2539Z" fill="black"/>
<rect x="5" y="51" width="177" height="213" fill="#FEFEFE"/>
<line x1="4.00055" y1="56" x2="183.001" y2="56.0198" stroke="black" stroke-width="10"/>
<line x1="4.99802" y1="264.48" x2="182.997" y2="263.777" stroke="black"/>
<line x1="4.99802" y1="213.48" x2="182.997" y2="212.777" stroke="black"/>
<line x1="3.99802" y1="111.48" x2="181.997" y2="110.777" stroke="black"/>
<path d="M5 162.704L182.999 162" stroke="black"/>
<line x1="146.5" y1="60.9975" x2="147.505" y2="263.995" stroke="black"/>
<line x1="182.5" y1="60" x2="182.5" y2="264" stroke="black"/>
<line x1="4.5" y1="60.9982" x2="5.22597" y2="264.997" stroke="black"/>
<line x1="40.5" y1="60" x2="40.5" y2="264" stroke="black"/>
<line x1="75.5" y1="59.9986" x2="76.0862" y2="263.998" stroke="black"/>
<line x1="111.5" y1="59" x2="111.5" y2="264" stroke="black"/>
<path d="M5.10742 275.588L6.88477 272.434H9.90234L6.89453 277.609L10.0293 283H7.00195L5.11719 279.68L3.24219 283H0.205078L3.33984 277.609L0.341797 272.434H3.36914L5.10742 275.588Z" fill="black"/>
<circle cx="144" cy="85" r="13" fill="black"/>
<path d="M145.693 89H144V82.4727L141.979 83.0996V81.7227L145.512 80.457H145.693V89Z" fill="#FEFEFE"/>
<circle cx="75" cy="136" r="13" fill="black"/>
<path d="M78.4277 140H72.5801V138.84L75.3398 135.898C75.7188 135.484 75.998 135.123 76.1777 134.814C76.3613 134.506 76.4531 134.213 76.4531 133.936C76.4531 133.557 76.3574 133.26 76.166 133.045C75.9746 132.826 75.7012 132.717 75.3457 132.717C74.9629 132.717 74.6602 132.85 74.4375 133.115C74.2188 133.377 74.1094 133.723 74.1094 134.152H72.4102C72.4102 133.633 72.5332 133.158 72.7793 132.729C73.0293 132.299 73.3809 131.963 73.834 131.721C74.2871 131.475 74.8008 131.352 75.375 131.352C76.2539 131.352 76.9355 131.562 77.4199 131.984C77.9082 132.406 78.1523 133.002 78.1523 133.771C78.1523 134.193 78.043 134.623 77.8242 135.061C77.6055 135.498 77.2305 136.008 76.6992 136.59L74.7598 138.635H78.4277V140Z" fill="#FEFEFE"/>
</svg>
