<svg width="184" height="279" viewBox="0 0 184 279" fill="none" xmlns="http://www.w3.org/2000/svg">
<rect x="5" y="47" width="177" height="213" fill="#FEFEFE"/>
<line x1="4.00055" y1="52" x2="183.001" y2="52.0198" stroke="black" stroke-width="10"/>
<line x1="4.99802" y1="260.48" x2="182.997" y2="259.777" stroke="black"/>
<line x1="4.99802" y1="209.48" x2="182.997" y2="208.777" stroke="black"/>
<line x1="3.99802" y1="107.48" x2="181.997" y2="106.777" stroke="black"/>
<path d="M5 158.704L182.999 158" stroke="black"/>
<line x1="146.5" y1="56.9975" x2="147.505" y2="259.995" stroke="black"/>
<line x1="182.5" y1="56" x2="182.5" y2="260" stroke="black"/>
<line x1="4.5" y1="56.9982" x2="5.22597" y2="260.997" stroke="black"/>
<line x1="40.5" y1="56" x2="40.5" y2="260" stroke="black"/>
<line x1="75.5" y1="55.9986" x2="76.0862" y2="259.998" stroke="black"/>
<line x1="111.5" y1="55" x2="111.5" y2="260" stroke="black"/>
<line x1="40.0003" y1="129.5" x2="184" y2="129.52" stroke="black" stroke-width="5"/>
<circle cx="77" cy="235" r="13" fill="black"/>
<path d="M80.4277 239H74.5801V237.84L77.3398 234.898C77.7188 234.484 77.998 234.123 78.1777 233.814C78.3613 233.506 78.4531 233.213 78.4531 232.936C78.4531 232.557 78.3574 232.26 78.166 232.045C77.9746 231.826 77.7012 231.717 77.3457 231.717C76.9629 231.717 76.6602 231.85 76.4375 232.115C76.2188 232.377 76.1094 232.723 76.1094 233.152H74.4102C74.4102 232.633 74.5332 232.158 74.7793 231.729C75.0293 231.299 75.3809 230.963 75.834 230.721C76.2871 230.475 76.8008 230.352 77.375 230.352C78.2539 230.352 78.9355 230.562 79.4199 230.984C79.9082 231.406 80.1523 232.002 80.1523 232.771C80.1523 233.193 80.043 233.623 79.8242 234.061C79.6055 234.498 79.2305 235.008 78.6992 235.59L76.7598 237.635H80.4277V239Z" fill="#FEFEFE"/>
<circle cx="111" cy="235" r="13" fill="black"/>
<path d="M110.303 233.984H111.205C111.635 233.984 111.953 233.877 112.16 233.662C112.367 233.447 112.471 233.162 112.471 232.807C112.471 232.463 112.367 232.195 112.16 232.004C111.957 231.812 111.676 231.717 111.316 231.717C110.992 231.717 110.721 231.807 110.502 231.986C110.283 232.162 110.174 232.393 110.174 232.678H108.48C108.48 232.232 108.6 231.834 108.838 231.482C109.08 231.127 109.416 230.85 109.846 230.65C110.279 230.451 110.756 230.352 111.275 230.352C112.178 230.352 112.885 230.568 113.396 231.002C113.908 231.432 114.164 232.025 114.164 232.783C114.164 233.174 114.045 233.533 113.807 233.861C113.568 234.189 113.256 234.441 112.869 234.617C113.35 234.789 113.707 235.047 113.941 235.391C114.18 235.734 114.299 236.141 114.299 236.609C114.299 237.367 114.021 237.975 113.467 238.432C112.916 238.889 112.186 239.117 111.275 239.117C110.424 239.117 109.727 238.893 109.184 238.443C108.645 237.994 108.375 237.4 108.375 236.662H110.068C110.068 236.982 110.188 237.244 110.426 237.447C110.668 237.65 110.965 237.752 111.316 237.752C111.719 237.752 112.033 237.646 112.26 237.436C112.49 237.221 112.605 236.938 112.605 236.586C112.605 235.734 112.137 235.309 111.199 235.309H110.303V233.984Z" fill="#FEFEFE"/>
<path d="M5.10742 266.588L6.88477 263.434H9.90234L6.89453 268.609L10.0293 274H7.00195L5.11719 270.68L3.24219 274H0.205078L3.33984 268.609L0.341797 263.434H3.36914L5.10742 266.588Z" fill="black"/>
<circle cx="146" cy="235" r="13" fill="black"/>
<path d="M148.59 235.789H149.557V237.154H148.59V239H146.896V237.154H143.398L143.322 236.088L146.879 230.469H148.59V235.789ZM145.01 235.789H146.896V232.777L146.785 232.971L145.01 235.789Z" fill="#FEFEFE"/>
<path d="M85.2852 33V7.40625H94.25C97.3555 7.40625 99.7109 8.00391 101.316 9.19922C102.922 10.3828 103.725 12.123 103.725 14.4199C103.725 15.6738 103.402 16.7812 102.758 17.7422C102.113 18.6914 101.217 19.3887 100.068 19.834C101.381 20.1621 102.412 20.8242 103.162 21.8203C103.924 22.8164 104.305 24.0352 104.305 25.4766C104.305 27.9375 103.52 29.8008 101.949 31.0664C100.379 32.332 98.1406 32.9766 95.2344 33H85.2852ZM90.5586 21.8555V28.7637H95.0762C96.3184 28.7637 97.2852 28.4707 97.9766 27.8848C98.6797 27.2871 99.0312 26.4668 99.0312 25.4238C99.0312 23.0801 97.8184 21.8906 95.3926 21.8555H90.5586ZM90.5586 18.1289H94.4609C97.1211 18.082 98.4512 17.0215 98.4512 14.9473C98.4512 13.7871 98.1113 12.9551 97.4316 12.4512C96.7637 11.9355 95.7031 11.6777 94.25 11.6777H90.5586V18.1289Z" fill="black"/>
</svg>
