<svg width="184" height="279" viewBox="0 0 184 279" fill="none" xmlns="http://www.w3.org/2000/svg">
<rect x="5" y="47" width="177" height="213" fill="#FEFEFE"/>
<line x1="4.00055" y1="52" x2="183.001" y2="52.0198" stroke="black" stroke-width="10"/>
<line x1="4.99802" y1="260.48" x2="182.997" y2="259.777" stroke="black"/>
<line x1="4.99802" y1="209.48" x2="182.997" y2="208.777" stroke="black"/>
<line x1="3.99802" y1="107.48" x2="181.997" y2="106.777" stroke="black"/>
<path d="M5 158.704L182.999 158" stroke="black"/>
<line x1="146.5" y1="56.9975" x2="147.505" y2="259.995" stroke="black"/>
<line x1="182.5" y1="56" x2="182.5" y2="260" stroke="black"/>
<line x1="4.5" y1="56.9982" x2="5.22597" y2="260.997" stroke="black"/>
<line x1="40.5" y1="56" x2="40.5" y2="260" stroke="black"/>
<line x1="75.5" y1="55.9986" x2="76.0862" y2="259.998" stroke="black"/>
<line x1="111.5" y1="55" x2="111.5" y2="260" stroke="black"/>
<line x1="40.0003" y1="129.5" x2="184" y2="129.52" stroke="black" stroke-width="5"/>
<path d="M5.10742 266.588L6.88477 263.434H9.90234L6.89453 268.609L10.0293 274H7.00195L5.11719 270.68L3.24219 274H0.205078L3.33984 268.609L0.341797 263.434H3.36914L5.10742 266.588Z" fill="black"/>
<path d="M73.2852 33V7.40625H82.25C85.3555 7.40625 87.7109 8.00391 89.3164 9.19922C90.9219 10.3828 91.7246 12.123 91.7246 14.4199C91.7246 15.6738 91.4023 16.7812 90.7578 17.7422C90.1133 18.6914 89.2168 19.3887 88.0684 19.834C89.3809 20.1621 90.4121 20.8242 91.1621 21.8203C91.9238 22.8164 92.3047 24.0352 92.3047 25.4766C92.3047 27.9375 91.5195 29.8008 89.9492 31.0664C88.3789 32.332 86.1406 32.9766 83.2344 33H73.2852ZM78.5586 21.8555V28.7637H83.0762C84.3184 28.7637 85.2852 28.4707 85.9766 27.8848C86.6797 27.2871 87.0312 26.4668 87.0312 25.4238C87.0312 23.0801 85.8184 21.8906 83.3926 21.8555H78.5586ZM78.5586 18.1289H82.4609C85.1211 18.082 86.4512 17.0215 86.4512 14.9473C86.4512 13.7871 86.1113 12.9551 85.4316 12.4512C84.7637 11.9355 83.7031 11.6777 82.25 11.6777H78.5586V18.1289ZM113.135 10.2539L103.238 33H97.877L107.791 11.5195H95.0645V7.40625H113.135V10.2539Z" fill="black"/>
<circle cx="76" cy="235" r="13" fill="black"/>
<path d="M79.4277 239H73.5801V237.84L76.3398 234.898C76.7188 234.484 76.998 234.123 77.1777 233.814C77.3613 233.506 77.4531 233.213 77.4531 232.936C77.4531 232.557 77.3574 232.26 77.166 232.045C76.9746 231.826 76.7012 231.717 76.3457 231.717C75.9629 231.717 75.6602 231.85 75.4375 232.115C75.2188 232.377 75.1094 232.723 75.1094 233.152H73.4102C73.4102 232.633 73.5332 232.158 73.7793 231.729C74.0293 231.299 74.3809 230.963 74.834 230.721C75.2871 230.475 75.8008 230.352 76.375 230.352C77.2539 230.352 77.9355 230.562 78.4199 230.984C78.9082 231.406 79.1523 232.002 79.1523 232.771C79.1523 233.193 79.043 233.623 78.8242 234.061C78.6055 234.498 78.2305 235.008 77.6992 235.59L75.7598 237.635H79.4277V239Z" fill="#FEFEFE"/>
<circle cx="147" cy="235" r="13" fill="black"/>
<path d="M149.59 235.789H150.557V237.154H149.59V239H147.896V237.154H144.398L144.322 236.088L147.879 230.469H149.59V235.789ZM146.01 235.789H147.896V232.777L147.785 232.971L146.01 235.789Z" fill="#FEFEFE"/>
</svg>
