<svg width="183" height="284" viewBox="0 0 183 284" fill="none" xmlns="http://www.w3.org/2000/svg">
<path d="M5.10742 271.588L6.88477 268.434H9.90234L6.89453 273.609L10.0293 279H7.00195L5.11719 275.68L3.24219 279H0.205078L3.33984 273.609L0.341797 268.434H3.36914L5.10742 271.588Z" fill="black"/>
<rect x="4" y="47" width="177" height="213" fill="#FEFEFE"/>
<line x1="3.00055" y1="52" x2="182.001" y2="52.0198" stroke="black" stroke-width="10"/>
<line x1="3.99802" y1="260.48" x2="181.997" y2="259.777" stroke="black"/>
<line x1="3.99802" y1="209.48" x2="181.997" y2="208.777" stroke="black"/>
<line x1="2.99802" y1="107.48" x2="180.997" y2="106.777" stroke="black"/>
<path d="M4 158.704L181.999 158" stroke="black"/>
<line x1="145.5" y1="56.9975" x2="146.505" y2="259.995" stroke="black"/>
<line x1="181.5" y1="56" x2="181.5" y2="260" stroke="black"/>
<line x1="3.5" y1="56.9982" x2="4.22597" y2="260.997" stroke="black"/>
<line x1="39.5" y1="56" x2="39.5" y2="260" stroke="black"/>
<line x1="74.5" y1="55.9986" x2="75.0862" y2="259.998" stroke="black"/>
<line x1="110.5" y1="55" x2="110.5" y2="260" stroke="black"/>
<line x1="39.0003" y1="129.5" x2="183" y2="129.52" stroke="black" stroke-width="5"/>
<circle cx="146" cy="184" r="13" fill="black"/>
<path d="M149.428 188H143.58V186.84L146.34 183.898C146.719 183.484 146.998 183.123 147.178 182.814C147.361 182.506 147.453 182.213 147.453 181.936C147.453 181.557 147.357 181.26 147.166 181.045C146.975 180.826 146.701 180.717 146.346 180.717C145.963 180.717 145.66 180.85 145.438 181.115C145.219 181.377 145.109 181.723 145.109 182.152H143.41C143.41 181.633 143.533 181.158 143.779 180.729C144.029 180.299 144.381 179.963 144.834 179.721C145.287 179.475 145.801 179.352 146.375 179.352C147.254 179.352 147.936 179.562 148.42 179.984C148.908 180.406 149.152 181.002 149.152 181.771C149.152 182.193 149.043 182.623 148.824 183.061C148.605 183.498 148.23 184.008 147.699 184.59L145.76 186.635H149.428V188Z" fill="#FEFEFE"/>
<circle cx="75" cy="235" r="13" fill="black"/>
<path d="M74.3027 233.984H75.2051C75.6348 233.984 75.9531 233.877 76.1602 233.662C76.3672 233.447 76.4707 233.162 76.4707 232.807C76.4707 232.463 76.3672 232.195 76.1602 232.004C75.957 231.812 75.6758 231.717 75.3164 231.717C74.9922 231.717 74.7207 231.807 74.502 231.986C74.2832 232.162 74.1738 232.393 74.1738 232.678H72.4805C72.4805 232.232 72.5996 231.834 72.8379 231.482C73.0801 231.127 73.416 230.85 73.8457 230.65C74.2793 230.451 74.7559 230.352 75.2754 230.352C76.1777 230.352 76.8848 230.568 77.3965 231.002C77.9082 231.432 78.1641 232.025 78.1641 232.783C78.1641 233.174 78.0449 233.533 77.8066 233.861C77.5684 234.189 77.2559 234.441 76.8691 234.617C77.3496 234.789 77.707 235.047 77.9414 235.391C78.1797 235.734 78.2988 236.141 78.2988 236.609C78.2988 237.367 78.0215 237.975 77.4668 238.432C76.916 238.889 76.1855 239.117 75.2754 239.117C74.4238 239.117 73.7266 238.893 73.1836 238.443C72.6445 237.994 72.375 237.4 72.375 236.662H74.0684C74.0684 236.982 74.1875 237.244 74.4258 237.447C74.668 237.65 74.9648 237.752 75.3164 237.752C75.7188 237.752 76.0332 237.646 76.2598 237.436C76.4902 237.221 76.6055 236.938 76.6055 236.586C76.6055 235.734 76.1367 235.309 75.1992 235.309H74.3027V233.984Z" fill="#FEFEFE"/>
<circle cx="110" cy="235" r="13" fill="black"/>
<path d="M112.59 235.789H113.557V237.154H112.59V239H110.896V237.154H107.398L107.322 236.088L110.879 230.469H112.59V235.789ZM109.01 235.789H110.896V232.777L110.785 232.971L109.01 235.789Z" fill="#FEFEFE"/>
<path d="M72.2852 33V7.40625H81.25C84.3555 7.40625 86.7109 8.00391 88.3164 9.19922C89.9219 10.3828 90.7246 12.123 90.7246 14.4199C90.7246 15.6738 90.4023 16.7812 89.7578 17.7422C89.1133 18.6914 88.2168 19.3887 87.0684 19.834C88.3809 20.1621 89.4121 20.8242 90.1621 21.8203C90.9238 22.8164 91.3047 24.0352 91.3047 25.4766C91.3047 27.9375 90.5195 29.8008 88.9492 31.0664C87.3789 32.332 85.1406 32.9766 82.2344 33H72.2852ZM77.5586 21.8555V28.7637H82.0762C83.3184 28.7637 84.2852 28.4707 84.9766 27.8848C85.6797 27.2871 86.0312 26.4668 86.0312 25.4238C86.0312 23.0801 84.8184 21.8906 82.3926 21.8555H77.5586ZM77.5586 18.1289H81.4609C84.1211 18.082 85.4512 17.0215 85.4512 14.9473C85.4512 13.7871 85.1113 12.9551 84.4316 12.4512C83.7637 11.9355 82.7031 11.6777 81.25 11.6777H77.5586V18.1289ZM99.707 13.9805L99.8652 16.1074C101.213 14.4551 103.035 13.6289 105.332 13.6289C107.781 13.6289 109.463 14.5957 110.377 16.5293C111.713 14.5957 113.617 13.6289 116.09 13.6289C118.152 13.6289 119.688 14.2324 120.695 15.4395C121.703 16.6348 122.207 18.4395 122.207 20.8535V33H117.109V20.8711C117.109 19.793 116.898 19.0078 116.477 18.5156C116.055 18.0117 115.311 17.7598 114.244 17.7598C112.721 17.7598 111.666 18.4863 111.08 19.9395L111.098 33H106.018V20.8887C106.018 19.7871 105.801 18.9902 105.367 18.498C104.934 18.0059 104.195 17.7598 103.152 17.7598C101.711 17.7598 100.668 18.3574 100.023 19.5527V33H94.9434V13.9805H99.707Z" fill="black"/>
</svg>
