<svg width="185" height="283" viewBox="0 0 185 283" fill="none" xmlns="http://www.w3.org/2000/svg">
<path d="M5.10742 270.588L6.88477 267.434H9.90234L6.89453 272.609L10.0293 278H7.00195L5.11719 274.68L3.24219 278H0.205078L3.33984 272.609L0.341797 267.434H3.36914L5.10742 270.588Z" fill="black"/>
<path d="M64.2852 33V7.40625H73.25C76.3555 7.40625 78.7109 8.00391 80.3164 9.19922C81.9219 10.3828 82.7246 12.123 82.7246 14.4199C82.7246 15.6738 82.4023 16.7812 81.7578 17.7422C81.1133 18.6914 80.2168 19.3887 79.0684 19.834C80.3809 20.1621 81.4121 20.8242 82.1621 21.8203C82.9238 22.8164 83.3047 24.0352 83.3047 25.4766C83.3047 27.9375 82.5195 29.8008 80.9492 31.0664C79.3789 32.332 77.1406 32.9766 74.2344 33H64.2852ZM69.5586 21.8555V28.7637H74.0762C75.3184 28.7637 76.2852 28.4707 76.9766 27.8848C77.6797 27.2871 78.0312 26.4668 78.0312 25.4238C78.0312 23.0801 76.8184 21.8906 74.3926 21.8555H69.5586ZM69.5586 18.1289H73.4609C76.1211 18.082 77.4512 17.0215 77.4512 14.9473C77.4512 13.7871 77.1113 12.9551 76.4316 12.4512C75.7637 11.9355 74.7031 11.6777 73.25 11.6777H69.5586V18.1289ZM91.707 13.9805L91.8652 16.1074C93.2129 14.4551 95.0352 13.6289 97.332 13.6289C99.7812 13.6289 101.463 14.5957 102.377 16.5293C103.713 14.5957 105.617 13.6289 108.09 13.6289C110.152 13.6289 111.688 14.2324 112.695 15.4395C113.703 16.6348 114.207 18.4395 114.207 20.8535V33H109.109V20.8711C109.109 19.793 108.898 19.0078 108.477 18.5156C108.055 18.0117 107.311 17.7598 106.244 17.7598C104.721 17.7598 103.666 18.4863 103.08 19.9395L103.098 33H98.0176V20.8887C98.0176 19.7871 97.8008 18.9902 97.3672 18.498C96.9336 18.0059 96.1953 17.7598 95.1523 17.7598C93.7109 17.7598 92.668 18.3574 92.0234 19.5527V33H86.9434V13.9805H91.707ZM135.318 10.2539L125.422 33H120.061L129.975 11.5195H117.248V7.40625H135.318V10.2539Z" fill="black"/>
<rect x="6" y="51" width="177" height="213" fill="#FEFEFE"/>
<line x1="5.00055" y1="56" x2="184.001" y2="56.0198" stroke="black" stroke-width="10"/>
<line x1="5.99802" y1="264.48" x2="183.997" y2="263.777" stroke="black"/>
<line x1="5.99802" y1="213.48" x2="183.997" y2="212.777" stroke="black"/>
<line x1="4.99802" y1="111.48" x2="182.997" y2="110.777" stroke="black"/>
<path d="M6 162.704L183.999 162" stroke="black"/>
<line x1="147.5" y1="60.9975" x2="148.505" y2="263.995" stroke="black"/>
<line x1="183.5" y1="60" x2="183.5" y2="264" stroke="black"/>
<line x1="5.5" y1="60.9982" x2="6.22597" y2="264.997" stroke="black"/>
<line x1="41.5" y1="60" x2="41.5" y2="264" stroke="black"/>
<line x1="76.5" y1="59.9986" x2="77.0862" y2="263.998" stroke="black"/>
<line x1="112.5" y1="59" x2="112.5" y2="264" stroke="black"/>
<line x1="41.0003" y1="133.5" x2="185" y2="133.52" stroke="black" stroke-width="5"/>
<circle cx="148" cy="188" r="13" fill="black"/>
<path d="M151.428 192H145.58V190.84L148.34 187.898C148.719 187.484 148.998 187.123 149.178 186.814C149.361 186.506 149.453 186.213 149.453 185.936C149.453 185.557 149.357 185.26 149.166 185.045C148.975 184.826 148.701 184.717 148.346 184.717C147.963 184.717 147.66 184.85 147.438 185.115C147.219 185.377 147.109 185.723 147.109 186.152H145.41C145.41 185.633 145.533 185.158 145.779 184.729C146.029 184.299 146.381 183.963 146.834 183.721C147.287 183.475 147.801 183.352 148.375 183.352C149.254 183.352 149.936 183.562 150.42 183.984C150.908 184.406 151.152 185.002 151.152 185.771C151.152 186.193 151.043 186.623 150.824 187.061C150.605 187.498 150.23 188.008 149.699 188.59L147.76 190.635H151.428V192Z" fill="#FEFEFE"/>
<circle cx="77" cy="243" r="13" fill="black"/>
<path d="M76.3027 241.984H77.2051C77.6348 241.984 77.9531 241.877 78.1602 241.662C78.3672 241.447 78.4707 241.162 78.4707 240.807C78.4707 240.463 78.3672 240.195 78.1602 240.004C77.957 239.812 77.6758 239.717 77.3164 239.717C76.9922 239.717 76.7207 239.807 76.502 239.986C76.2832 240.162 76.1738 240.393 76.1738 240.678H74.4805C74.4805 240.232 74.5996 239.834 74.8379 239.482C75.0801 239.127 75.416 238.85 75.8457 238.65C76.2793 238.451 76.7559 238.352 77.2754 238.352C78.1777 238.352 78.8848 238.568 79.3965 239.002C79.9082 239.432 80.1641 240.025 80.1641 240.783C80.1641 241.174 80.0449 241.533 79.8066 241.861C79.5684 242.189 79.2559 242.441 78.8691 242.617C79.3496 242.789 79.707 243.047 79.9414 243.391C80.1797 243.734 80.2988 244.141 80.2988 244.609C80.2988 245.367 80.0215 245.975 79.4668 246.432C78.916 246.889 78.1855 247.117 77.2754 247.117C76.4238 247.117 75.7266 246.893 75.1836 246.443C74.6445 245.994 74.375 245.4 74.375 244.662H76.0684C76.0684 244.982 76.1875 245.244 76.4258 245.447C76.668 245.65 76.9648 245.752 77.3164 245.752C77.7188 245.752 78.0332 245.646 78.2598 245.436C78.4902 245.221 78.6055 244.938 78.6055 244.586C78.6055 243.734 78.1367 243.309 77.1992 243.309H76.3027V241.984Z" fill="#FEFEFE"/>
</svg>
