<svg width="184" height="284" viewBox="0 0 184 284" fill="none" xmlns="http://www.w3.org/2000/svg">
<rect x="5" y="47" width="177" height="213" fill="#FEFEFE"/>
<line x1="4.00055" y1="52" x2="183.001" y2="52.0198" stroke="black" stroke-width="10"/>
<line x1="4.99802" y1="260.48" x2="182.997" y2="259.777" stroke="black"/>
<line x1="4.99802" y1="209.48" x2="182.997" y2="208.777" stroke="black"/>
<line x1="3.99802" y1="107.48" x2="181.997" y2="106.777" stroke="black"/>
<path d="M5 158.704L182.999 158" stroke="black"/>
<line x1="146.5" y1="56.9975" x2="147.505" y2="259.995" stroke="black"/>
<line x1="182.5" y1="56" x2="182.5" y2="260" stroke="black"/>
<line x1="4.5" y1="56.9982" x2="5.22597" y2="260.997" stroke="black"/>
<line x1="40.5" y1="56" x2="40.5" y2="260" stroke="black"/>
<line x1="75.5" y1="55.9986" x2="76.0862" y2="259.998" stroke="black"/>
<line x1="111.5" y1="55" x2="111.5" y2="260" stroke="black"/>
<path d="M5.10742 271.588L6.88477 268.434H9.90234L6.89453 273.609L10.0293 279H7.00195L5.11719 275.68L3.24219 279H0.205078L3.33984 273.609L0.341797 268.434H3.36914L5.10742 271.588Z" fill="black"/>
<circle cx="146" cy="83" r="13" fill="black"/>
<path d="M147.693 87H146V80.4727L143.979 81.0996V79.7227L147.512 78.457H147.693V87Z" fill="#FEFEFE"/>
<circle cx="75" cy="134" r="13" fill="black"/>
<path d="M78.4277 138H72.5801V136.84L75.3398 133.898C75.7188 133.484 75.998 133.123 76.1777 132.814C76.3613 132.506 76.4531 132.213 76.4531 131.936C76.4531 131.557 76.3574 131.26 76.166 131.045C75.9746 130.826 75.7012 130.717 75.3457 130.717C74.9629 130.717 74.6602 130.85 74.4375 131.115C74.2188 131.377 74.1094 131.723 74.1094 132.152H72.4102C72.4102 131.633 72.5332 131.158 72.7793 130.729C73.0293 130.299 73.3809 129.963 73.834 129.721C74.2871 129.475 74.8008 129.352 75.375 129.352C76.2539 129.352 76.9355 129.562 77.4199 129.984C77.9082 130.406 78.1523 131.002 78.1523 131.771C78.1523 132.193 78.043 132.623 77.8242 133.061C77.6055 133.498 77.2305 134.008 76.6992 134.59L74.7598 136.635H78.4277V138Z" fill="#FEFEFE"/>
<path d="M93.377 24.4746C93.1777 27.2285 92.1582 29.3965 90.3184 30.9785C88.4902 32.5605 86.0762 33.3516 83.0762 33.3516C79.7949 33.3516 77.2109 32.25 75.3242 30.0469C73.4492 27.832 72.5117 24.7969 72.5117 20.9414V19.377C72.5117 16.916 72.9453 14.748 73.8125 12.873C74.6797 10.998 75.916 9.5625 77.5215 8.56641C79.1387 7.55859 81.0137 7.05469 83.1465 7.05469C86.0996 7.05469 88.4785 7.8457 90.2832 9.42773C92.0879 11.0098 93.1309 13.2305 93.4121 16.0898H88.1387C88.0098 14.4375 87.5469 13.2422 86.75 12.5039C85.9648 11.7539 84.7637 11.3789 83.1465 11.3789C81.3887 11.3789 80.0703 12.0117 79.1914 13.2773C78.3242 14.5312 77.8789 16.4824 77.8555 19.1309V21.0645C77.8555 23.8301 78.2715 25.8516 79.1035 27.1289C79.9473 28.4062 81.2715 29.0449 83.0762 29.0449C84.7051 29.0449 85.918 28.6758 86.7148 27.9375C87.5234 27.1875 87.9863 26.0332 88.1035 24.4746H93.377ZM113.697 10.2539L103.801 33H98.4395L108.354 11.5195H95.627V7.40625H113.697V10.2539Z" fill="black"/>
<circle cx="40" cy="185" r="13" fill="black"/>
<path d="M39.3027 183.984H40.2051C40.6348 183.984 40.9531 183.877 41.1602 183.662C41.3672 183.447 41.4707 183.162 41.4707 182.807C41.4707 182.463 41.3672 182.195 41.1602 182.004C40.957 181.812 40.6758 181.717 40.3164 181.717C39.9922 181.717 39.7207 181.807 39.502 181.986C39.2832 182.162 39.1738 182.393 39.1738 182.678H37.4805C37.4805 182.232 37.5996 181.834 37.8379 181.482C38.0801 181.127 38.416 180.85 38.8457 180.65C39.2793 180.451 39.7559 180.352 40.2754 180.352C41.1777 180.352 41.8848 180.568 42.3965 181.002C42.9082 181.432 43.1641 182.025 43.1641 182.783C43.1641 183.174 43.0449 183.533 42.8066 183.861C42.5684 184.189 42.2559 184.441 41.8691 184.617C42.3496 184.789 42.707 185.047 42.9414 185.391C43.1797 185.734 43.2988 186.141 43.2988 186.609C43.2988 187.367 43.0215 187.975 42.4668 188.432C41.916 188.889 41.1855 189.117 40.2754 189.117C39.4238 189.117 38.7266 188.893 38.1836 188.443C37.6445 187.994 37.375 187.4 37.375 186.662H39.0684C39.0684 186.982 39.1875 187.244 39.4258 187.447C39.668 187.65 39.9648 187.752 40.3164 187.752C40.7188 187.752 41.0332 187.646 41.2598 187.436C41.4902 187.221 41.6055 186.938 41.6055 186.586C41.6055 185.734 41.1367 185.309 40.1992 185.309H39.3027V183.984Z" fill="#FEFEFE"/>
<circle cx="111" cy="185" r="13" fill="black"/>
<path d="M113.59 185.789H114.557V187.154H113.59V189H111.896V187.154H108.398L108.322 186.088L111.879 180.469H113.59V185.789ZM110.01 185.789H111.896V182.777L111.785 182.971L110.01 185.789Z" fill="#FEFEFE"/>
</svg>
