<svg width="196" height="284" viewBox="0 0 196 284" fill="none" xmlns="http://www.w3.org/2000/svg">
<path d="M3.83789 128.641H5.3418C6.05794 128.641 6.58854 128.462 6.93359 128.104C7.27865 127.745 7.45117 127.27 7.45117 126.678C7.45117 126.105 7.27865 125.659 6.93359 125.34C6.59505 125.021 6.1263 124.861 5.52734 124.861C4.98698 124.861 4.53451 125.011 4.16992 125.311C3.80534 125.604 3.62305 125.988 3.62305 126.463H0.800781C0.800781 125.721 0.999349 125.057 1.39648 124.471C1.80013 123.878 2.36003 123.416 3.07617 123.084C3.79883 122.752 4.5931 122.586 5.45898 122.586C6.96289 122.586 8.14128 122.947 8.99414 123.67C9.84701 124.386 10.2734 125.376 10.2734 126.639C10.2734 127.29 10.0749 127.889 9.67773 128.436C9.2806 128.982 8.75977 129.402 8.11523 129.695C8.91602 129.982 9.51172 130.411 9.90234 130.984C10.2995 131.557 10.498 132.234 10.498 133.016C10.498 134.279 10.0358 135.291 9.11133 136.053C8.19336 136.814 6.97591 137.195 5.45898 137.195C4.03971 137.195 2.8776 136.821 1.97266 136.072C1.07422 135.324 0.625 134.334 0.625 133.104H3.44727C3.44727 133.637 3.64583 134.074 4.04297 134.412C4.44661 134.751 4.94141 134.92 5.52734 134.92C6.19792 134.92 6.72201 134.744 7.09961 134.393C7.48372 134.035 7.67578 133.562 7.67578 132.977C7.67578 131.557 6.89453 130.848 5.33203 130.848H3.83789V128.641Z" fill="black"/>
<rect x="17" y="47" width="177" height="213" fill="#FEFEFE"/>
<line x1="16.0006" y1="52" x2="195.001" y2="52.0198" stroke="black" stroke-width="10"/>
<line x1="16.998" y1="260.48" x2="194.997" y2="259.777" stroke="black"/>
<line x1="16.998" y1="209.48" x2="194.997" y2="208.777" stroke="black"/>
<line x1="15.998" y1="107.48" x2="193.997" y2="106.777" stroke="black"/>
<path d="M17 158.704L194.999 158" stroke="black"/>
<line x1="158.5" y1="56.9975" x2="159.505" y2="259.995" stroke="black"/>
<line x1="194.5" y1="56" x2="194.5" y2="260" stroke="black"/>
<line x1="16.5" y1="56.9982" x2="17.226" y2="260.997" stroke="black"/>
<line x1="52.5" y1="56" x2="52.5" y2="260" stroke="black"/>
<line x1="87.5" y1="55.9986" x2="88.0862" y2="259.998" stroke="black"/>
<line x1="123.5" y1="55" x2="123.5" y2="260" stroke="black"/>
<path d="M17.1074 271.588L18.8848 268.434H21.9023L18.8945 273.609L22.0293 279H19.002L17.1172 275.68L15.2422 279H12.2051L15.3398 273.609L12.3418 268.434H15.3691L17.1074 271.588Z" fill="black"/>
<circle cx="159" cy="184" r="13" fill="black"/>
<path d="M162.428 188H156.58V186.84L159.34 183.898C159.719 183.484 159.998 183.123 160.178 182.814C160.361 182.506 160.453 182.213 160.453 181.936C160.453 181.557 160.357 181.26 160.166 181.045C159.975 180.826 159.701 180.717 159.346 180.717C158.963 180.717 158.66 180.85 158.438 181.115C158.219 181.377 158.109 181.723 158.109 182.152H156.41C156.41 181.633 156.533 181.158 156.779 180.729C157.029 180.299 157.381 179.963 157.834 179.721C158.287 179.475 158.801 179.352 159.375 179.352C160.254 179.352 160.936 179.562 161.42 179.984C161.908 180.406 162.152 181.002 162.152 181.771C162.152 182.193 162.043 182.623 161.824 183.061C161.605 183.498 161.23 184.008 160.699 184.59L158.76 186.635H162.428V188Z" fill="#FEFEFE"/>
<path d="M101.377 24.4746C101.178 27.2285 100.158 29.3965 98.3184 30.9785C96.4902 32.5605 94.0762 33.3516 91.0762 33.3516C87.7949 33.3516 85.2109 32.25 83.3242 30.0469C81.4492 27.832 80.5117 24.7969 80.5117 20.9414V19.377C80.5117 16.916 80.9453 14.748 81.8125 12.873C82.6797 10.998 83.916 9.5625 85.5215 8.56641C87.1387 7.55859 89.0137 7.05469 91.1465 7.05469C94.0996 7.05469 96.4785 7.8457 98.2832 9.42773C100.088 11.0098 101.131 13.2305 101.412 16.0898H96.1387C96.0098 14.4375 95.5469 13.2422 94.75 12.5039C93.9648 11.7539 92.7637 11.3789 91.1465 11.3789C89.3887 11.3789 88.0703 12.0117 87.1914 13.2773C86.3242 14.5312 85.8789 16.4824 85.8555 19.1309V21.0645C85.8555 23.8301 86.2715 25.8516 87.1035 27.1289C87.9473 28.4062 89.2715 29.0449 91.0762 29.0449C92.7051 29.0449 93.918 28.6758 94.7148 27.9375C95.5234 27.1875 95.9863 26.0332 96.1035 24.4746H101.377ZM109.27 13.9805L109.428 16.1074C110.775 14.4551 112.598 13.6289 114.895 13.6289C117.344 13.6289 119.025 14.5957 119.939 16.5293C121.275 14.5957 123.18 13.6289 125.652 13.6289C127.715 13.6289 129.25 14.2324 130.258 15.4395C131.266 16.6348 131.77 18.4395 131.77 20.8535V33H126.672V20.8711C126.672 19.793 126.461 19.0078 126.039 18.5156C125.617 18.0117 124.873 17.7598 123.807 17.7598C122.283 17.7598 121.229 18.4863 120.643 19.9395L120.66 33H115.58V20.8887C115.58 19.7871 115.363 18.9902 114.93 18.498C114.496 18.0059 113.758 17.7598 112.715 17.7598C111.273 17.7598 110.23 18.3574 109.586 19.5527V33H104.506V13.9805H109.27Z" fill="black"/>
<circle cx="88" cy="235" r="13" fill="black"/>
<path d="M87.3027 233.984H88.2051C88.6348 233.984 88.9531 233.877 89.1602 233.662C89.3672 233.447 89.4707 233.162 89.4707 232.807C89.4707 232.463 89.3672 232.195 89.1602 232.004C88.957 231.812 88.6758 231.717 88.3164 231.717C87.9922 231.717 87.7207 231.807 87.502 231.986C87.2832 232.162 87.1738 232.393 87.1738 232.678H85.4805C85.4805 232.232 85.5996 231.834 85.8379 231.482C86.0801 231.127 86.416 230.85 86.8457 230.65C87.2793 230.451 87.7559 230.352 88.2754 230.352C89.1777 230.352 89.8848 230.568 90.3965 231.002C90.9082 231.432 91.1641 232.025 91.1641 232.783C91.1641 233.174 91.0449 233.533 90.8066 233.861C90.5684 234.189 90.2559 234.441 89.8691 234.617C90.3496 234.789 90.707 235.047 90.9414 235.391C91.1797 235.734 91.2988 236.141 91.2988 236.609C91.2988 237.367 91.0215 237.975 90.4668 238.432C89.916 238.889 89.1855 239.117 88.2754 239.117C87.4238 239.117 86.7266 238.893 86.1836 238.443C85.6445 237.994 85.375 237.4 85.375 236.662H87.0684C87.0684 236.982 87.1875 237.244 87.4258 237.447C87.668 237.65 87.9648 237.752 88.3164 237.752C88.7188 237.752 89.0332 237.646 89.2598 237.436C89.4902 237.221 89.6055 236.938 89.6055 236.586C89.6055 235.734 89.1367 235.309 88.1992 235.309H87.3027V233.984Z" fill="#FEFEFE"/>
<circle cx="123" cy="235" r="13" fill="black"/>
<path d="M125.59 235.789H126.557V237.154H125.59V239H123.896V237.154H120.398L120.322 236.088L123.879 230.469H125.59V235.789ZM122.01 235.789H123.896V232.777L123.785 232.971L122.01 235.789Z" fill="#FEFEFE"/>
<line x1="52.0003" y1="129.5" x2="195" y2="129.52" stroke="black" stroke-width="5"/>
</svg>
