<svg width="193" height="288" viewBox="0 0 193 288" fill="none" xmlns="http://www.w3.org/2000/svg">
<path d="M3.83789 135.641H5.3418C6.05794 135.641 6.58854 135.462 6.93359 135.104C7.27865 134.745 7.45117 134.27 7.45117 133.678C7.45117 133.105 7.27865 132.659 6.93359 132.34C6.59505 132.021 6.1263 131.861 5.52734 131.861C4.98698 131.861 4.53451 132.011 4.16992 132.311C3.80534 132.604 3.62305 132.988 3.62305 133.463H0.800781C0.800781 132.721 0.999349 132.057 1.39648 131.471C1.80013 130.878 2.36003 130.416 3.07617 130.084C3.79883 129.752 4.5931 129.586 5.45898 129.586C6.96289 129.586 8.14128 129.947 8.99414 130.67C9.84701 131.386 10.2734 132.376 10.2734 133.639C10.2734 134.29 10.0749 134.889 9.67773 135.436C9.2806 135.982 8.75977 136.402 8.11523 136.695C8.91602 136.982 9.51172 137.411 9.90234 137.984C10.2995 138.557 10.498 139.234 10.498 140.016C10.498 141.279 10.0358 142.291 9.11133 143.053C8.19336 143.814 6.97591 144.195 5.45898 144.195C4.03971 144.195 2.8776 143.821 1.97266 143.072C1.07422 142.324 0.625 141.334 0.625 140.104H3.44727C3.44727 140.637 3.64583 141.074 4.04297 141.412C4.44661 141.751 4.94141 141.92 5.52734 141.92C6.19792 141.92 6.72201 141.744 7.09961 141.393C7.48372 141.035 7.67578 140.562 7.67578 139.977C7.67578 138.557 6.89453 137.848 5.33203 137.848H3.83789V135.641Z" fill="black"/>
<path d="M86.377 24.4746C86.1777 27.2285 85.1582 29.3965 83.3184 30.9785C81.4902 32.5605 79.0762 33.3516 76.0762 33.3516C72.7949 33.3516 70.2109 32.25 68.3242 30.0469C66.4492 27.832 65.5117 24.7969 65.5117 20.9414V19.377C65.5117 16.916 65.9453 14.748 66.8125 12.873C67.6797 10.998 68.916 9.5625 70.5215 8.56641C72.1387 7.55859 74.0137 7.05469 76.1465 7.05469C79.0996 7.05469 81.4785 7.8457 83.2832 9.42773C85.0879 11.0098 86.1309 13.2305 86.4121 16.0898H81.1387C81.0098 14.4375 80.5469 13.2422 79.75 12.5039C78.9648 11.7539 77.7637 11.3789 76.1465 11.3789C74.3887 11.3789 73.0703 12.0117 72.1914 13.2773C71.3242 14.5312 70.8789 16.4824 70.8555 19.1309V21.0645C70.8555 23.8301 71.2715 25.8516 72.1035 27.1289C72.9473 28.4062 74.2715 29.0449 76.0762 29.0449C77.7051 29.0449 78.918 28.6758 79.7148 27.9375C80.5234 27.1875 80.9863 26.0332 81.1035 24.4746H86.377ZM94.2695 13.9805L94.4277 16.1074C95.7754 14.4551 97.5977 13.6289 99.8945 13.6289C102.344 13.6289 104.025 14.5957 104.939 16.5293C106.275 14.5957 108.18 13.6289 110.652 13.6289C112.715 13.6289 114.25 14.2324 115.258 15.4395C116.266 16.6348 116.77 18.4395 116.77 20.8535V33H111.672V20.8711C111.672 19.793 111.461 19.0078 111.039 18.5156C110.617 18.0117 109.873 17.7598 108.807 17.7598C107.283 17.7598 106.229 18.4863 105.643 19.9395L105.66 33H100.58V20.8887C100.58 19.7871 100.363 18.9902 99.9297 18.498C99.4961 18.0059 98.7578 17.7598 97.7148 17.7598C96.2734 17.7598 95.2305 18.3574 94.5859 19.5527V33H89.5059V13.9805H94.2695ZM137.881 10.2539L127.984 33H122.623L132.537 11.5195H119.811V7.40625H137.881V10.2539Z" fill="black"/>
<rect x="14" y="51" width="177" height="213" fill="#FEFEFE"/>
<line x1="13.0006" y1="56" x2="192.001" y2="56.0198" stroke="black" stroke-width="10"/>
<line x1="13.998" y1="264.48" x2="191.997" y2="263.777" stroke="black"/>
<line x1="13.998" y1="213.48" x2="191.997" y2="212.777" stroke="black"/>
<line x1="12.998" y1="111.48" x2="190.997" y2="110.777" stroke="black"/>
<path d="M14 162.704L191.999 162" stroke="black"/>
<line x1="155.5" y1="60.9975" x2="156.505" y2="263.995" stroke="black"/>
<line x1="191.5" y1="60" x2="191.5" y2="264" stroke="black"/>
<line x1="13.5" y1="60.9982" x2="14.226" y2="264.997" stroke="black"/>
<line x1="49.5" y1="60" x2="49.5" y2="264" stroke="black"/>
<line x1="84.5" y1="59.9986" x2="85.0862" y2="263.998" stroke="black"/>
<line x1="120.5" y1="59" x2="120.5" y2="264" stroke="black"/>
<path d="M14.1074 275.588L15.8848 272.434H18.9023L15.8945 277.609L19.0293 283H16.002L14.1172 279.68L12.2422 283H9.20508L12.3398 277.609L9.3418 272.434H12.3691L14.1074 275.588Z" fill="black"/>
<circle cx="156" cy="188" r="13" fill="black"/>
<path d="M159.428 192H153.58V190.84L156.34 187.898C156.719 187.484 156.998 187.123 157.178 186.814C157.361 186.506 157.453 186.213 157.453 185.936C157.453 185.557 157.357 185.26 157.166 185.045C156.975 184.826 156.701 184.717 156.346 184.717C155.963 184.717 155.66 184.85 155.438 185.115C155.219 185.377 155.109 185.723 155.109 186.152H153.41C153.41 185.633 153.533 185.158 153.779 184.729C154.029 184.299 154.381 183.963 154.834 183.721C155.287 183.475 155.801 183.352 156.375 183.352C157.254 183.352 157.936 183.562 158.42 183.984C158.908 184.406 159.152 185.002 159.152 185.771C159.152 186.193 159.043 186.623 158.824 187.061C158.605 187.498 158.23 188.008 157.699 188.59L155.76 190.635H159.428V192Z" fill="#FEFEFE"/>
<circle cx="85" cy="243" r="13" fill="black"/>
<path d="M84.3027 241.984H85.2051C85.6348 241.984 85.9531 241.877 86.1602 241.662C86.3672 241.447 86.4707 241.162 86.4707 240.807C86.4707 240.463 86.3672 240.195 86.1602 240.004C85.957 239.812 85.6758 239.717 85.3164 239.717C84.9922 239.717 84.7207 239.807 84.502 239.986C84.2832 240.162 84.1738 240.393 84.1738 240.678H82.4805C82.4805 240.232 82.5996 239.834 82.8379 239.482C83.0801 239.127 83.416 238.85 83.8457 238.65C84.2793 238.451 84.7559 238.352 85.2754 238.352C86.1777 238.352 86.8848 238.568 87.3965 239.002C87.9082 239.432 88.1641 240.025 88.1641 240.783C88.1641 241.174 88.0449 241.533 87.8066 241.861C87.5684 242.189 87.2559 242.441 86.8691 242.617C87.3496 242.789 87.707 243.047 87.9414 243.391C88.1797 243.734 88.2988 244.141 88.2988 244.609C88.2988 245.367 88.0215 245.975 87.4668 246.432C86.916 246.889 86.1855 247.117 85.2754 247.117C84.4238 247.117 83.7266 246.893 83.1836 246.443C82.6445 245.994 82.375 245.4 82.375 244.662H84.0684C84.0684 244.982 84.1875 245.244 84.4258 245.447C84.668 245.65 84.9648 245.752 85.3164 245.752C85.7188 245.752 86.0332 245.646 86.2598 245.436C86.4902 245.221 86.6055 244.938 86.6055 244.586C86.6055 243.734 86.1367 243.309 85.1992 243.309H84.3027V241.984Z" fill="#FEFEFE"/>
<line x1="49.0003" y1="137.5" x2="193" y2="137.52" stroke="black" stroke-width="5"/>
</svg>
