<svg width="196" height="284" viewBox="0 0 196 284" fill="none" xmlns="http://www.w3.org/2000/svg">
<rect x="6" y="47" width="177" height="213" fill="#FEFEFE"/>
<line x1="5.00055" y1="52" x2="184.001" y2="52.0198" stroke="black" stroke-width="10"/>
<line x1="5.99802" y1="260.48" x2="183.997" y2="259.777" stroke="black"/>
<line x1="5.99802" y1="209.48" x2="183.997" y2="208.777" stroke="black"/>
<line x1="4.99802" y1="107.48" x2="182.997" y2="106.777" stroke="black"/>
<path d="M6 158.704L183.999 158" stroke="black"/>
<line x1="147.5" y1="56.9975" x2="148.505" y2="259.995" stroke="black"/>
<line x1="183.5" y1="56" x2="183.5" y2="260" stroke="black"/>
<line x1="5.5" y1="56.9982" x2="6.22597" y2="260.997" stroke="black"/>
<line x1="41.5" y1="56" x2="41.5" y2="260" stroke="black"/>
<line x1="76.5" y1="55.9986" x2="77.0862" y2="259.998" stroke="black"/>
<line x1="112.5" y1="55" x2="112.5" y2="260" stroke="black"/>
<path d="M5.10742 271.588L6.88477 268.434H9.90234L6.89453 273.609L10.0293 279H7.00195L5.11719 275.68L3.24219 279H0.205078L3.33984 273.609L0.341797 268.434H3.36914L5.10742 271.588Z" fill="black"/>
<path d="M41.1074 271.588L42.8848 268.434H45.9023L42.8945 273.609L46.0293 279H43.002L41.1172 275.68L39.2422 279H36.2051L39.3398 273.609L36.3418 268.434H39.3691L41.1074 271.588Z" fill="black"/>
<circle cx="112" cy="132" r="13" fill="black"/>
<path d="M113.693 136H112V129.473L109.979 130.1V128.723L113.512 127.457H113.693V136Z" fill="#FEFEFE"/>
<circle cx="183" cy="132" r="13" fill="black"/>
<path d="M186.428 136H180.58V134.84L183.34 131.898C183.719 131.484 183.998 131.123 184.178 130.814C184.361 130.506 184.453 130.213 184.453 129.936C184.453 129.557 184.357 129.26 184.166 129.045C183.975 128.826 183.701 128.717 183.346 128.717C182.963 128.717 182.66 128.85 182.438 129.115C182.219 129.377 182.109 129.723 182.109 130.152H180.41C180.41 129.633 180.533 129.158 180.779 128.729C181.029 128.299 181.381 127.963 181.834 127.721C182.287 127.475 182.801 127.352 183.375 127.352C184.254 127.352 184.936 127.562 185.42 127.984C185.908 128.406 186.152 129.002 186.152 129.771C186.152 130.193 186.043 130.623 185.824 131.061C185.605 131.498 185.23 132.008 184.699 132.59L182.76 134.635H186.428V136Z" fill="#FEFEFE"/>
<circle cx="148" cy="184" r="13" fill="black"/>
<path d="M147.303 182.984H148.205C148.635 182.984 148.953 182.877 149.16 182.662C149.367 182.447 149.471 182.162 149.471 181.807C149.471 181.463 149.367 181.195 149.16 181.004C148.957 180.812 148.676 180.717 148.316 180.717C147.992 180.717 147.721 180.807 147.502 180.986C147.283 181.162 147.174 181.393 147.174 181.678H145.48C145.48 181.232 145.6 180.834 145.838 180.482C146.08 180.127 146.416 179.85 146.846 179.65C147.279 179.451 147.756 179.352 148.275 179.352C149.178 179.352 149.885 179.568 150.396 180.002C150.908 180.432 151.164 181.025 151.164 181.783C151.164 182.174 151.045 182.533 150.807 182.861C150.568 183.189 150.256 183.441 149.869 183.617C150.35 183.789 150.707 184.047 150.941 184.391C151.18 184.734 151.299 185.141 151.299 185.609C151.299 186.367 151.021 186.975 150.467 187.432C149.916 187.889 149.186 188.117 148.275 188.117C147.424 188.117 146.727 187.893 146.184 187.443C145.645 186.994 145.375 186.4 145.375 185.662H147.068C147.068 185.982 147.188 186.244 147.426 186.447C147.668 186.65 147.965 186.752 148.316 186.752C148.719 186.752 149.033 186.646 149.26 186.436C149.49 186.221 149.605 185.938 149.605 185.586C149.605 184.734 149.137 184.309 148.199 184.309H147.303V182.984Z" fill="#FEFEFE"/>
<path d="M85.2852 33V7.40625H93.1602C95.4102 7.40625 97.4199 7.91602 99.1895 8.93555C100.971 9.94336 102.359 11.3848 103.355 13.2598C104.352 15.123 104.85 17.2441 104.85 19.623V20.8008C104.85 23.1797 104.357 25.2949 103.373 27.1465C102.4 28.998 101.023 30.4336 99.2422 31.4531C97.4609 32.4727 95.4512 32.9883 93.2129 33H85.2852ZM90.5586 11.6777V28.7637H93.1074C95.1699 28.7637 96.7461 28.0898 97.8359 26.7422C98.9258 25.3945 99.4824 23.4668 99.5059 20.959V19.6055C99.5059 17.0039 98.9668 15.0352 97.8887 13.6992C96.8105 12.3516 95.2344 11.6777 93.1602 11.6777H90.5586Z" fill="black"/>
</svg>
