<svg width="193" height="284" viewBox="0 0 193 284" fill="none" xmlns="http://www.w3.org/2000/svg">
<rect x="6" y="47" width="177" height="213" fill="#FEFEFE"/>
<line x1="5.00055" y1="52" x2="184.001" y2="52.0198" stroke="black" stroke-width="10"/>
<line x1="5.99802" y1="260.48" x2="183.997" y2="259.777" stroke="black"/>
<line x1="5.99802" y1="209.48" x2="183.997" y2="208.777" stroke="black"/>
<line x1="4.99802" y1="107.48" x2="182.997" y2="106.777" stroke="black"/>
<path d="M6 158.704L183.999 158" stroke="black"/>
<line x1="147.5" y1="56.9975" x2="148.505" y2="259.995" stroke="black"/>
<line x1="183.5" y1="56" x2="183.5" y2="260" stroke="black"/>
<line x1="5.5" y1="56.9982" x2="6.22597" y2="260.997" stroke="black"/>
<line x1="41.5" y1="56" x2="41.5" y2="260" stroke="black"/>
<line x1="76.5" y1="55.9986" x2="77.0862" y2="259.998" stroke="black"/>
<line x1="112.5" y1="55" x2="112.5" y2="260" stroke="black"/>
<path d="M5.10742 271.588L6.88477 268.434H9.90234L6.89453 273.609L10.0293 279H7.00195L5.11719 275.68L3.24219 279H0.205078L3.33984 273.609L0.341797 268.434H3.36914L5.10742 271.588Z" fill="black"/>
<path d="M41.1074 271.588L42.8848 268.434H45.9023L42.8945 273.609L46.0293 279H43.002L41.1172 275.68L39.2422 279H36.2051L39.3398 273.609L36.3418 268.434H39.3691L41.1074 271.588Z" fill="black"/>
<circle cx="147" cy="83" r="13" fill="black"/>
<path d="M148.693 87H147V80.4727L144.979 81.0996V79.7227L148.512 78.457H148.693V87Z" fill="#FEFEFE"/>
<circle cx="116" cy="134" r="13" fill="black"/>
<path d="M119.428 138H113.58V136.84L116.34 133.898C116.719 133.484 116.998 133.123 117.178 132.814C117.361 132.506 117.453 132.213 117.453 131.936C117.453 131.557 117.357 131.26 117.166 131.045C116.975 130.826 116.701 130.717 116.346 130.717C115.963 130.717 115.66 130.85 115.438 131.115C115.219 131.377 115.109 131.723 115.109 132.152H113.41C113.41 131.633 113.533 131.158 113.779 130.729C114.029 130.299 114.381 129.963 114.834 129.721C115.287 129.475 115.801 129.352 116.375 129.352C117.254 129.352 117.936 129.562 118.42 129.984C118.908 130.406 119.152 131.002 119.152 131.771C119.152 132.193 119.043 132.623 118.824 133.061C118.605 133.498 118.23 134.008 117.699 134.59L115.76 136.635H119.428V138Z" fill="#FEFEFE"/>
<circle cx="180" cy="134" r="13" fill="black"/>
<path d="M179.303 132.984H180.205C180.635 132.984 180.953 132.877 181.16 132.662C181.367 132.447 181.471 132.162 181.471 131.807C181.471 131.463 181.367 131.195 181.16 131.004C180.957 130.812 180.676 130.717 180.316 130.717C179.992 130.717 179.721 130.807 179.502 130.986C179.283 131.162 179.174 131.393 179.174 131.678H177.48C177.48 131.232 177.6 130.834 177.838 130.482C178.08 130.127 178.416 129.85 178.846 129.65C179.279 129.451 179.756 129.352 180.275 129.352C181.178 129.352 181.885 129.568 182.396 130.002C182.908 130.432 183.164 131.025 183.164 131.783C183.164 132.174 183.045 132.533 182.807 132.861C182.568 133.189 182.256 133.441 181.869 133.617C182.35 133.789 182.707 134.047 182.941 134.391C183.18 134.734 183.299 135.141 183.299 135.609C183.299 136.367 183.021 136.975 182.467 137.432C181.916 137.889 181.186 138.117 180.275 138.117C179.424 138.117 178.727 137.893 178.184 137.443C177.645 136.994 177.375 136.4 177.375 135.662H179.068C179.068 135.982 179.188 136.244 179.426 136.447C179.668 136.65 179.965 136.752 180.316 136.752C180.719 136.752 181.033 136.646 181.26 136.436C181.49 136.221 181.605 135.938 181.605 135.586C181.605 134.734 181.137 134.309 180.199 134.309H179.303V132.984Z" fill="#FEFEFE"/>
<path d="M79.2852 33V7.40625H87.1602C89.4102 7.40625 91.4199 7.91602 93.1895 8.93555C94.9707 9.94336 96.3594 11.3848 97.3555 13.2598C98.3516 15.123 98.8496 17.2441 98.8496 19.623V20.8008C98.8496 23.1797 98.3574 25.2949 97.373 27.1465C96.4004 28.998 95.0234 30.4336 93.2422 31.4531C91.4609 32.4727 89.4512 32.9883 87.2129 33H79.2852ZM84.5586 11.6777V28.7637H87.1074C89.1699 28.7637 90.7461 28.0898 91.8359 26.7422C92.9258 25.3945 93.4824 23.4668 93.5059 20.959V19.6055C93.5059 17.0039 92.9668 15.0352 91.8887 13.6992C90.8105 12.3516 89.2344 11.6777 87.1602 11.6777H84.5586ZM119.557 10.2539L109.66 33H104.299L114.213 11.5195H101.486V7.40625H119.557V10.2539Z" fill="black"/>
</svg>
