<svg width="197" height="284" viewBox="0 0 197 284" fill="none" xmlns="http://www.w3.org/2000/svg">
<rect x="6" y="47" width="177" height="213" fill="#FEFEFE"/>
<line x1="5.00055" y1="52" x2="184.001" y2="52.0198" stroke="black" stroke-width="10"/>
<line x1="5.99802" y1="260.48" x2="183.997" y2="259.777" stroke="black"/>
<line x1="5.99802" y1="209.48" x2="183.997" y2="208.777" stroke="black"/>
<line x1="4.99802" y1="107.48" x2="182.997" y2="106.777" stroke="black"/>
<path d="M6 158.704L183.999 158" stroke="black"/>
<line x1="147.5" y1="56.9975" x2="148.505" y2="259.995" stroke="black"/>
<line x1="183.5" y1="56" x2="183.5" y2="260" stroke="black"/>
<line x1="5.5" y1="56.9982" x2="6.22597" y2="260.997" stroke="black"/>
<line x1="41.5" y1="56" x2="41.5" y2="260" stroke="black"/>
<line x1="76.5" y1="55.9986" x2="77.0862" y2="259.998" stroke="black"/>
<line x1="112.5" y1="55" x2="112.5" y2="260" stroke="black"/>
<path d="M5.10742 271.588L6.88477 268.434H9.90234L6.89453 273.609L10.0293 279H7.00195L5.11719 275.68L3.24219 279H0.205078L3.33984 273.609L0.341797 268.434H3.36914L5.10742 271.588Z" fill="black"/>
<path d="M41.1074 271.588L42.8848 268.434H45.9023L42.8945 273.609L46.0293 279H43.002L41.1172 275.68L39.2422 279H36.2051L39.3398 273.609L36.3418 268.434H39.3691L41.1074 271.588Z" fill="black"/>
<circle cx="184" cy="81" r="13" fill="black"/>
<path d="M185.693 85H184V78.4727L181.979 79.0996V77.7227L185.512 76.457H185.693V85Z" fill="#FEFEFE"/>
<circle cx="113" cy="132" r="13" fill="black"/>
<path d="M116.428 136H110.58V134.84L113.34 131.898C113.719 131.484 113.998 131.123 114.178 130.814C114.361 130.506 114.453 130.213 114.453 129.936C114.453 129.557 114.357 129.26 114.166 129.045C113.975 128.826 113.701 128.717 113.346 128.717C112.963 128.717 112.66 128.85 112.438 129.115C112.219 129.377 112.109 129.723 112.109 130.152H110.41C110.41 129.633 110.533 129.158 110.779 128.729C111.029 128.299 111.381 127.963 111.834 127.721C112.287 127.475 112.801 127.352 113.375 127.352C114.254 127.352 114.936 127.562 115.42 127.984C115.908 128.406 116.152 129.002 116.152 129.771C116.152 130.193 116.043 130.623 115.824 131.061C115.605 131.498 115.23 132.008 114.699 132.59L112.76 134.635H116.428V136Z" fill="#FEFEFE"/>
<circle cx="148" cy="184" r="13" fill="black"/>
<path d="M147.303 182.984H148.205C148.635 182.984 148.953 182.877 149.16 182.662C149.367 182.447 149.471 182.162 149.471 181.807C149.471 181.463 149.367 181.195 149.16 181.004C148.957 180.812 148.676 180.717 148.316 180.717C147.992 180.717 147.721 180.807 147.502 180.986C147.283 181.162 147.174 181.393 147.174 181.678H145.48C145.48 181.232 145.6 180.834 145.838 180.482C146.08 180.127 146.416 179.85 146.846 179.65C147.279 179.451 147.756 179.352 148.275 179.352C149.178 179.352 149.885 179.568 150.396 180.002C150.908 180.432 151.164 181.025 151.164 181.783C151.164 182.174 151.045 182.533 150.807 182.861C150.568 183.189 150.256 183.441 149.869 183.617C150.35 183.789 150.707 184.047 150.941 184.391C151.18 184.734 151.299 185.141 151.299 185.609C151.299 186.367 151.021 186.975 150.467 187.432C149.916 187.889 149.186 188.117 148.275 188.117C147.424 188.117 146.727 187.893 146.184 187.443C145.645 186.994 145.375 186.4 145.375 185.662H147.068C147.068 185.982 147.188 186.244 147.426 186.447C147.668 186.65 147.965 186.752 148.316 186.752C148.719 186.752 149.033 186.646 149.26 186.436C149.49 186.221 149.605 185.938 149.605 185.586C149.605 184.734 149.137 184.309 148.199 184.309H147.303V182.984Z" fill="#FEFEFE"/>
<path d="M69.2852 33V7.40625H77.1602C79.4102 7.40625 81.4199 7.91602 83.1895 8.93555C84.9707 9.94336 86.3594 11.3848 87.3555 13.2598C88.3516 15.123 88.8496 17.2441 88.8496 19.623V20.8008C88.8496 23.1797 88.3574 25.2949 87.373 27.1465C86.4004 28.998 85.0234 30.4336 83.2422 31.4531C81.4609 32.4727 79.4512 32.9883 77.2129 33H69.2852ZM74.5586 11.6777V28.7637H77.1074C79.1699 28.7637 80.7461 28.0898 81.8359 26.7422C82.9258 25.3945 83.4824 23.4668 83.5059 20.959V19.6055C83.5059 17.0039 82.9668 15.0352 81.8887 13.6992C80.8105 12.3516 79.2344 11.6777 77.1602 11.6777H74.5586ZM97.1289 13.9805L97.2871 16.1074C98.6348 14.4551 100.457 13.6289 102.754 13.6289C105.203 13.6289 106.885 14.5957 107.799 16.5293C109.135 14.5957 111.039 13.6289 113.512 13.6289C115.574 13.6289 117.109 14.2324 118.117 15.4395C119.125 16.6348 119.629 18.4395 119.629 20.8535V33H114.531V20.8711C114.531 19.793 114.32 19.0078 113.898 18.5156C113.477 18.0117 112.732 17.7598 111.666 17.7598C110.143 17.7598 109.088 18.4863 108.502 19.9395L108.52 33H103.439V20.8887C103.439 19.7871 103.223 18.9902 102.789 18.498C102.355 18.0059 101.617 17.7598 100.574 17.7598C99.1328 17.7598 98.0898 18.3574 97.4453 19.5527V33H92.3652V13.9805H97.1289Z" fill="black"/>
</svg>
