<svg width="196" height="288" viewBox="0 0 196 288" fill="none" xmlns="http://www.w3.org/2000/svg">
<path d="M58.2852 33V7.40625H66.1602C68.4102 7.40625 70.4199 7.91602 72.1895 8.93555C73.9707 9.94336 75.3594 11.3848 76.3555 13.2598C77.3516 15.123 77.8496 17.2441 77.8496 19.623V20.8008C77.8496 23.1797 77.3574 25.2949 76.373 27.1465C75.4004 28.998 74.0234 30.4336 72.2422 31.4531C70.4609 32.4727 68.4512 32.9883 66.2129 33H58.2852ZM63.5586 11.6777V28.7637H66.1074C68.1699 28.7637 69.7461 28.0898 70.8359 26.7422C71.9258 25.3945 72.4824 23.4668 72.5059 20.959V19.6055C72.5059 17.0039 71.9668 15.0352 70.8887 13.6992C69.8105 12.3516 68.2344 11.6777 66.1602 11.6777H63.5586ZM86.1289 13.9805L86.2871 16.1074C87.6348 14.4551 89.457 13.6289 91.7539 13.6289C94.2031 13.6289 95.8848 14.5957 96.7988 16.5293C98.1348 14.5957 100.039 13.6289 102.512 13.6289C104.574 13.6289 106.109 14.2324 107.117 15.4395C108.125 16.6348 108.629 18.4395 108.629 20.8535V33H103.531V20.8711C103.531 19.793 103.32 19.0078 102.898 18.5156C102.477 18.0117 101.732 17.7598 100.666 17.7598C99.1426 17.7598 98.0879 18.4863 97.502 19.9395L97.5195 33H92.4395V20.8887C92.4395 19.7871 92.2227 18.9902 91.7891 18.498C91.3555 18.0059 90.6172 17.7598 89.5742 17.7598C88.1328 17.7598 87.0898 18.3574 86.4453 19.5527V33H81.3652V13.9805H86.1289ZM129.74 10.2539L119.844 33H114.482L124.396 11.5195H111.67V7.40625H129.74V10.2539Z" fill="black"/>
<rect x="6" y="51" width="177" height="213" fill="#FEFEFE"/>
<line x1="5.00055" y1="56" x2="184.001" y2="56.0198" stroke="black" stroke-width="10"/>
<line x1="5.99802" y1="264.48" x2="183.997" y2="263.777" stroke="black"/>
<line x1="5.99802" y1="213.48" x2="183.997" y2="212.777" stroke="black"/>
<line x1="4.99802" y1="111.48" x2="182.997" y2="110.777" stroke="black"/>
<path d="M6 162.704L183.999 162" stroke="black"/>
<line x1="147.5" y1="60.9975" x2="148.505" y2="263.995" stroke="black"/>
<line x1="183.5" y1="60" x2="183.5" y2="264" stroke="black"/>
<line x1="5.5" y1="60.9982" x2="6.22597" y2="264.997" stroke="black"/>
<line x1="41.5" y1="60" x2="41.5" y2="264" stroke="black"/>
<line x1="76.5" y1="59.9986" x2="77.0862" y2="263.998" stroke="black"/>
<line x1="112.5" y1="59" x2="112.5" y2="264" stroke="black"/>
<path d="M5.10742 275.588L6.88477 272.434H9.90234L6.89453 277.609L10.0293 283H7.00195L5.11719 279.68L3.24219 283H0.205078L3.33984 277.609L0.341797 272.434H3.36914L5.10742 275.588Z" fill="black"/>
<path d="M41.1074 275.588L42.8848 272.434H45.9023L42.8945 277.609L46.0293 283H43.002L41.1172 279.68L39.2422 283H36.2051L39.3398 277.609L36.3418 272.434H39.3691L41.1074 275.588Z" fill="black"/>
<circle cx="147" cy="85" r="13" fill="black"/>
<path d="M148.693 89H147V82.4727L144.979 83.0996V81.7227L148.512 80.457H148.693V89Z" fill="#FEFEFE"/>
<circle cx="183" cy="85" r="13" fill="black"/>
<path d="M186.428 89H180.58V87.8398L183.34 84.8984C183.719 84.4844 183.998 84.123 184.178 83.8145C184.361 83.5059 184.453 83.2129 184.453 82.9355C184.453 82.5566 184.357 82.2598 184.166 82.0449C183.975 81.8262 183.701 81.7168 183.346 81.7168C182.963 81.7168 182.66 81.8496 182.438 82.1152C182.219 82.377 182.109 82.7227 182.109 83.1523H180.41C180.41 82.6328 180.533 82.1582 180.779 81.7285C181.029 81.2988 181.381 80.9629 181.834 80.7207C182.287 80.4746 182.801 80.3516 183.375 80.3516C184.254 80.3516 184.936 80.5625 185.42 80.9844C185.908 81.4062 186.152 82.002 186.152 82.7715C186.152 83.1934 186.043 83.623 185.824 84.0605C185.605 84.498 185.23 85.0078 184.699 85.5898L182.76 87.6348H186.428V89Z" fill="#FEFEFE"/>
<circle cx="112" cy="136" r="13" fill="black"/>
<path d="M111.303 134.984H112.205C112.635 134.984 112.953 134.877 113.16 134.662C113.367 134.447 113.471 134.162 113.471 133.807C113.471 133.463 113.367 133.195 113.16 133.004C112.957 132.812 112.676 132.717 112.316 132.717C111.992 132.717 111.721 132.807 111.502 132.986C111.283 133.162 111.174 133.393 111.174 133.678H109.48C109.48 133.232 109.6 132.834 109.838 132.482C110.08 132.127 110.416 131.85 110.846 131.65C111.279 131.451 111.756 131.352 112.275 131.352C113.178 131.352 113.885 131.568 114.396 132.002C114.908 132.432 115.164 133.025 115.164 133.783C115.164 134.174 115.045 134.533 114.807 134.861C114.568 135.189 114.256 135.441 113.869 135.617C114.35 135.789 114.707 136.047 114.941 136.391C115.18 136.734 115.299 137.141 115.299 137.609C115.299 138.367 115.021 138.975 114.467 139.432C113.916 139.889 113.186 140.117 112.275 140.117C111.424 140.117 110.727 139.893 110.184 139.443C109.645 138.994 109.375 138.4 109.375 137.662H111.068C111.068 137.982 111.188 138.244 111.426 138.447C111.668 138.65 111.965 138.752 112.316 138.752C112.719 138.752 113.033 138.646 113.26 138.436C113.49 138.221 113.605 137.938 113.605 137.586C113.605 136.734 113.137 136.309 112.199 136.309H111.303V134.984Z" fill="#FEFEFE"/>
</svg>
