<svg width="181" height="260" viewBox="0 0 181 260" fill="none" xmlns="http://www.w3.org/2000/svg">
<rect x="2" y="46" width="177" height="213" fill="#FEFEFE"/>
<line x1="1.00055" y1="51" x2="180.001" y2="51.0198" stroke="black" stroke-width="10"/>
<line x1="1.99802" y1="259.48" x2="179.997" y2="258.777" stroke="black"/>
<line x1="1.99802" y1="208.48" x2="179.997" y2="207.777" stroke="black"/>
<line x1="0.998024" y1="106.48" x2="178.997" y2="105.777" stroke="black"/>
<path d="M2 157.704L179.999 157" stroke="black"/>
<line x1="143.5" y1="55.9975" x2="144.505" y2="258.995" stroke="black"/>
<line x1="179.5" y1="55" x2="179.5" y2="259" stroke="black"/>
<line x1="1.5" y1="55.9982" x2="2.22597" y2="259.997" stroke="black"/>
<line x1="37.5" y1="55" x2="37.5" y2="259" stroke="black"/>
<line x1="72.5" y1="54.9986" x2="73.0862" y2="258.998" stroke="black"/>
<line x1="108.5" y1="54" x2="108.5" y2="259" stroke="black"/>
<circle cx="108" cy="81" r="13" fill="black"/>
<path d="M109.693 85H108V78.4727L105.979 79.0996V77.7227L109.512 76.457H109.693V85Z" fill="#FEFEFE"/>
<circle cx="37" cy="132" r="13" fill="black"/>
<path d="M40.4277 136H34.5801V134.84L37.3398 131.898C37.7188 131.484 37.998 131.123 38.1777 130.814C38.3613 130.506 38.4531 130.213 38.4531 129.936C38.4531 129.557 38.3574 129.26 38.166 129.045C37.9746 128.826 37.7012 128.717 37.3457 128.717C36.9629 128.717 36.6602 128.85 36.4375 129.115C36.2188 129.377 36.1094 129.723 36.1094 130.152H34.4102C34.4102 129.633 34.5332 129.158 34.7793 128.729C35.0293 128.299 35.3809 127.963 35.834 127.721C36.2871 127.475 36.8008 127.352 37.375 127.352C38.2539 127.352 38.9355 127.562 39.4199 127.984C39.9082 128.406 40.1523 129.002 40.1523 129.771C40.1523 130.193 40.043 130.623 39.8242 131.061C39.6055 131.498 39.2305 132.008 38.6992 132.59L36.7598 134.635H40.4277V136Z" fill="#FEFEFE"/>
<circle cx="73" cy="132" r="13" fill="black"/>
<path d="M72.3027 130.984H73.2051C73.6348 130.984 73.9531 130.877 74.1602 130.662C74.3672 130.447 74.4707 130.162 74.4707 129.807C74.4707 129.463 74.3672 129.195 74.1602 129.004C73.957 128.812 73.6758 128.717 73.3164 128.717C72.9922 128.717 72.7207 128.807 72.502 128.986C72.2832 129.162 72.1738 129.393 72.1738 129.678H70.4805C70.4805 129.232 70.5996 128.834 70.8379 128.482C71.0801 128.127 71.416 127.85 71.8457 127.65C72.2793 127.451 72.7559 127.352 73.2754 127.352C74.1777 127.352 74.8848 127.568 75.3965 128.002C75.9082 128.432 76.1641 129.025 76.1641 129.783C76.1641 130.174 76.0449 130.533 75.8066 130.861C75.5684 131.189 75.2559 131.441 74.8691 131.617C75.3496 131.789 75.707 132.047 75.9414 132.391C76.1797 132.734 76.2988 133.141 76.2988 133.609C76.2988 134.367 76.0215 134.975 75.4668 135.432C74.916 135.889 74.1855 136.117 73.2754 136.117C72.4238 136.117 71.7266 135.893 71.1836 135.443C70.6445 134.994 70.375 134.4 70.375 133.662H72.0684C72.0684 133.982 72.1875 134.244 72.4258 134.447C72.668 134.65 72.9648 134.752 73.3164 134.752C73.7188 134.752 74.0332 134.646 74.2598 134.436C74.4902 134.221 74.6055 133.938 74.6055 133.586C74.6055 132.734 74.1367 132.309 73.1992 132.309H72.3027V130.984Z" fill="#FEFEFE"/>
<path d="M97.6836 21.9082H87.5586V28.7637H99.4414V33H82.2852V7.40625H99.4062V11.6777H87.5586V17.7773H97.6836V21.9082Z" fill="black"/>
</svg>
