<svg width="181" height="264" viewBox="0 0 181 264" fill="none" xmlns="http://www.w3.org/2000/svg">
<path d="M72.6836 21.9082H62.5586V28.7637H74.4414V33H57.2852V7.40625H74.4062V11.6777H62.5586V17.7773H72.6836V21.9082ZM81.9648 13.9805L82.123 16.1074C83.4707 14.4551 85.293 13.6289 87.5898 13.6289C90.0391 13.6289 91.7207 14.5957 92.6348 16.5293C93.9707 14.5957 95.875 13.6289 98.3477 13.6289C100.41 13.6289 101.945 14.2324 102.953 15.4395C103.961 16.6348 104.465 18.4395 104.465 20.8535V33H99.3672V20.8711C99.3672 19.793 99.1562 19.0078 98.7344 18.5156C98.3125 18.0117 97.5684 17.7598 96.502 17.7598C94.9785 17.7598 93.9238 18.4863 93.3379 19.9395L93.3555 33H88.2754V20.8887C88.2754 19.7871 88.0586 18.9902 87.625 18.498C87.1914 18.0059 86.4531 17.7598 85.4102 17.7598C83.9688 17.7598 82.9258 18.3574 82.2812 19.5527V33H77.2012V13.9805H81.9648ZM125.576 10.2539L115.68 33H110.318L120.232 11.5195H107.506V7.40625H125.576V10.2539Z" fill="black"/>
<rect x="2" y="50" width="177" height="213" fill="#FEFEFE"/>
<line x1="1.00055" y1="55" x2="180.001" y2="55.0198" stroke="black" stroke-width="10"/>
<line x1="1.99802" y1="263.48" x2="179.997" y2="262.777" stroke="black"/>
<line x1="1.99802" y1="212.48" x2="179.997" y2="211.777" stroke="black"/>
<line x1="0.998024" y1="110.48" x2="178.997" y2="109.777" stroke="black"/>
<path d="M2 161.704L179.999 161" stroke="black"/>
<line x1="143.5" y1="59.9975" x2="144.505" y2="262.995" stroke="black"/>
<line x1="179.5" y1="59" x2="179.5" y2="263" stroke="black"/>
<line x1="1.5" y1="59.9982" x2="2.22597" y2="263.997" stroke="black"/>
<line x1="37.5" y1="59" x2="37.5" y2="263" stroke="black"/>
<line x1="72.5" y1="58.9986" x2="73.0862" y2="262.998" stroke="black"/>
<line x1="108.5" y1="58" x2="108.5" y2="263" stroke="black"/>
<circle cx="37" cy="136" r="13" fill="black"/>
<path d="M40.4277 140H34.5801V138.84L37.3398 135.898C37.7188 135.484 37.998 135.123 38.1777 134.814C38.3613 134.506 38.4531 134.213 38.4531 133.936C38.4531 133.557 38.3574 133.26 38.166 133.045C37.9746 132.826 37.7012 132.717 37.3457 132.717C36.9629 132.717 36.6602 132.85 36.4375 133.115C36.2188 133.377 36.1094 133.723 36.1094 134.152H34.4102C34.4102 133.633 34.5332 133.158 34.7793 132.729C35.0293 132.299 35.3809 131.963 35.834 131.721C36.2871 131.475 36.8008 131.352 37.375 131.352C38.2539 131.352 38.9355 131.562 39.4199 131.984C39.9082 132.406 40.1523 133.002 40.1523 133.771C40.1523 134.193 40.043 134.623 39.8242 135.061C39.6055 135.498 39.2305 136.008 38.6992 136.59L36.7598 138.635H40.4277V140Z" fill="#FEFEFE"/>
</svg>
