<svg width="181" height="259" viewBox="0 0 181 259" fill="none" xmlns="http://www.w3.org/2000/svg">
<rect x="2" y="45" width="177" height="213" fill="#FEFEFE"/>
<line x1="1.00055" y1="50" x2="180.001" y2="50.0198" stroke="black" stroke-width="10"/>
<line x1="1.99802" y1="258.48" x2="179.997" y2="257.777" stroke="black"/>
<line x1="1.99802" y1="207.48" x2="179.997" y2="206.777" stroke="black"/>
<line x1="0.998024" y1="105.48" x2="178.997" y2="104.777" stroke="black"/>
<path d="M2 156.704L179.999 156" stroke="black"/>
<line x1="143.5" y1="54.9975" x2="144.505" y2="257.995" stroke="black"/>
<line x1="179.5" y1="54" x2="179.5" y2="258" stroke="black"/>
<line x1="1.5" y1="54.9982" x2="2.22597" y2="258.997" stroke="black"/>
<line x1="37.5" y1="54" x2="37.5" y2="258" stroke="black"/>
<line x1="72.5" y1="53.9986" x2="73.0862" y2="257.998" stroke="black"/>
<line x1="108.5" y1="53" x2="108.5" y2="258" stroke="black"/>
<line x1="1.00028" y1="78.5" x2="180" y2="78.5198" stroke="black" stroke-width="5"/>
<circle cx="108" cy="132" r="13" fill="black"/>
<path d="M111.428 136H105.58V134.84L108.34 131.898C108.719 131.484 108.998 131.123 109.178 130.814C109.361 130.506 109.453 130.213 109.453 129.936C109.453 129.557 109.357 129.26 109.166 129.045C108.975 128.826 108.701 128.717 108.346 128.717C107.963 128.717 107.66 128.85 107.438 129.115C107.219 129.377 107.109 129.723 107.109 130.152H105.41C105.41 129.633 105.533 129.158 105.779 128.729C106.029 128.299 106.381 127.963 106.834 127.721C107.287 127.475 107.801 127.352 108.375 127.352C109.254 127.352 109.936 127.562 110.42 127.984C110.908 128.406 111.152 129.002 111.152 129.771C111.152 130.193 111.043 130.623 110.824 131.061C110.605 131.498 110.23 132.008 109.699 132.59L107.76 134.635H111.428V136Z" fill="#FEFEFE"/>
<circle cx="73" cy="184" r="13" fill="black"/>
<path d="M75.5898 184.789H76.5566V186.154H75.5898V188H73.8965V186.154H70.3984L70.3223 185.088L73.8789 179.469H75.5898V184.789ZM72.0098 184.789H73.8965V181.777L73.7852 181.971L72.0098 184.789Z" fill="#FEFEFE"/>
<circle cx="37" cy="184" r="13" fill="black"/>
<path d="M36.3027 182.984H37.2051C37.6348 182.984 37.9531 182.877 38.1602 182.662C38.3672 182.447 38.4707 182.162 38.4707 181.807C38.4707 181.463 38.3672 181.195 38.1602 181.004C37.957 180.812 37.6758 180.717 37.3164 180.717C36.9922 180.717 36.7207 180.807 36.502 180.986C36.2832 181.162 36.1738 181.393 36.1738 181.678H34.4805C34.4805 181.232 34.5996 180.834 34.8379 180.482C35.0801 180.127 35.416 179.85 35.8457 179.65C36.2793 179.451 36.7559 179.352 37.2754 179.352C38.1777 179.352 38.8848 179.568 39.3965 180.002C39.9082 180.432 40.1641 181.025 40.1641 181.783C40.1641 182.174 40.0449 182.533 39.8066 182.861C39.5684 183.189 39.2559 183.441 38.8691 183.617C39.3496 183.789 39.707 184.047 39.9414 184.391C40.1797 184.734 40.2988 185.141 40.2988 185.609C40.2988 186.367 40.0215 186.975 39.4668 187.432C38.916 187.889 38.1855 188.117 37.2754 188.117C36.4238 188.117 35.7266 187.893 35.1836 187.443C34.6445 186.994 34.375 186.4 34.375 185.662H36.0684C36.0684 185.982 36.1875 186.244 36.4258 186.447C36.668 186.65 36.9648 186.752 37.3164 186.752C37.7188 186.752 38.0332 186.646 38.2598 186.436C38.4902 186.221 38.6055 185.938 38.6055 185.586C38.6055 184.734 38.1367 184.309 37.1992 184.309H36.3027V182.984Z" fill="#FEFEFE"/>
<path d="M97.6836 22.541H87.5586V33H82.2852V7.40625H98.9492V11.6777H87.5586V18.2871H97.6836V22.541Z" fill="black"/>
</svg>
