<svg width="181" height="259" viewBox="0 0 181 259" fill="none" xmlns="http://www.w3.org/2000/svg">
<rect x="2" y="45" width="177" height="213" fill="#FEFEFE"/>
<line x1="1.00055" y1="50" x2="180.001" y2="50.0198" stroke="black" stroke-width="10"/>
<line x1="1.99802" y1="258.48" x2="179.997" y2="257.777" stroke="black"/>
<line x1="1.99802" y1="207.48" x2="179.997" y2="206.777" stroke="black"/>
<line x1="0.998024" y1="105.48" x2="178.997" y2="104.777" stroke="black"/>
<path d="M2 156.704L179.999 156" stroke="black"/>
<line x1="143.5" y1="54.9975" x2="144.505" y2="257.995" stroke="black"/>
<line x1="179.5" y1="54" x2="179.5" y2="258" stroke="black"/>
<line x1="1.5" y1="54.9982" x2="2.22597" y2="258.997" stroke="black"/>
<line x1="37.5" y1="54" x2="37.5" y2="258" stroke="black"/>
<line x1="72.5" y1="53.9986" x2="73.0862" y2="257.998" stroke="black"/>
<line x1="108.5" y1="53" x2="108.5" y2="258" stroke="black"/>
<line x1="1.00028" y1="78.5" x2="180" y2="78.5198" stroke="black" stroke-width="5"/>
<circle cx="73" cy="184" r="13" fill="black"/>
<path d="M75.5898 184.789H76.5566V186.154H75.5898V188H73.8965V186.154H70.3984L70.3223 185.088L73.8789 179.469H75.5898V184.789ZM72.0098 184.789H73.8965V181.777L73.7852 181.971L72.0098 184.789Z" fill="#FEFEFE"/>
<circle cx="37" cy="184" r="13" fill="black"/>
<path d="M36.3027 182.984H37.2051C37.6348 182.984 37.9531 182.877 38.1602 182.662C38.3672 182.447 38.4707 182.162 38.4707 181.807C38.4707 181.463 38.3672 181.195 38.1602 181.004C37.957 180.812 37.6758 180.717 37.3164 180.717C36.9922 180.717 36.7207 180.807 36.502 180.986C36.2832 181.162 36.1738 181.393 36.1738 181.678H34.4805C34.4805 181.232 34.5996 180.834 34.8379 180.482C35.0801 180.127 35.416 179.85 35.8457 179.65C36.2793 179.451 36.7559 179.352 37.2754 179.352C38.1777 179.352 38.8848 179.568 39.3965 180.002C39.9082 180.432 40.1641 181.025 40.1641 181.783C40.1641 182.174 40.0449 182.533 39.8066 182.861C39.5684 183.189 39.2559 183.441 38.8691 183.617C39.3496 183.789 39.707 184.047 39.9414 184.391C40.1797 184.734 40.2988 185.141 40.2988 185.609C40.2988 186.367 40.0215 186.975 39.4668 187.432C38.916 187.889 38.1855 188.117 37.2754 188.117C36.4238 188.117 35.7266 187.893 35.1836 187.443C34.6445 186.994 34.375 186.4 34.375 185.662H36.0684C36.0684 185.982 36.1875 186.244 36.4258 186.447C36.668 186.65 36.9648 186.752 37.3164 186.752C37.7188 186.752 38.0332 186.646 38.2598 186.436C38.4902 186.221 38.6055 185.938 38.6055 185.586C38.6055 184.734 38.1367 184.309 37.1992 184.309H36.3027V182.984Z" fill="#FEFEFE"/>
<path d="M82.6836 22.541H72.5586V33H67.2852V7.40625H83.9492V11.6777H72.5586V18.2871H82.6836V22.541ZM91.4375 13.9805L91.5957 16.1074C92.9434 14.4551 94.7656 13.6289 97.0625 13.6289C99.5117 13.6289 101.193 14.5957 102.107 16.5293C103.443 14.5957 105.348 13.6289 107.82 13.6289C109.883 13.6289 111.418 14.2324 112.426 15.4395C113.434 16.6348 113.938 18.4395 113.938 20.8535V33H108.84V20.8711C108.84 19.793 108.629 19.0078 108.207 18.5156C107.785 18.0117 107.041 17.7598 105.975 17.7598C104.451 17.7598 103.396 18.4863 102.811 19.9395L102.828 33H97.748V20.8887C97.748 19.7871 97.5312 18.9902 97.0977 18.498C96.6641 18.0059 95.9258 17.7598 94.8828 17.7598C93.4414 17.7598 92.3984 18.3574 91.7539 19.5527V33H86.6738V13.9805H91.4375Z" fill="black"/>
</svg>
