<svg width="181" height="263" viewBox="0 0 181 263" fill="none" xmlns="http://www.w3.org/2000/svg">
<path d="M72.6836 22.541H62.5586V33H57.2852V7.40625H73.9492V11.6777H62.5586V18.2871H72.6836V22.541ZM81.4375 13.9805L81.5957 16.1074C82.9434 14.4551 84.7656 13.6289 87.0625 13.6289C89.5117 13.6289 91.1934 14.5957 92.1074 16.5293C93.4434 14.5957 95.3477 13.6289 97.8203 13.6289C99.8828 13.6289 101.418 14.2324 102.426 15.4395C103.434 16.6348 103.938 18.4395 103.938 20.8535V33H98.8398V20.8711C98.8398 19.793 98.6289 19.0078 98.207 18.5156C97.7852 18.0117 97.041 17.7598 95.9746 17.7598C94.4512 17.7598 93.3965 18.4863 92.8105 19.9395L92.8281 33H87.748V20.8887C87.748 19.7871 87.5312 18.9902 87.0977 18.498C86.6641 18.0059 85.9258 17.7598 84.8828 17.7598C83.4414 17.7598 82.3984 18.3574 81.7539 19.5527V33H76.6738V13.9805H81.4375ZM125.049 10.2539L115.152 33H109.791L119.705 11.5195H106.979V7.40625H125.049V10.2539Z" fill="black"/>
<rect x="2" y="49" width="177" height="213" fill="#FEFEFE"/>
<line x1="1.00055" y1="54" x2="180.001" y2="54.0198" stroke="black" stroke-width="10"/>
<line x1="1.99802" y1="262.48" x2="179.997" y2="261.777" stroke="black"/>
<line x1="1.99802" y1="211.48" x2="179.997" y2="210.777" stroke="black"/>
<line x1="0.998024" y1="109.48" x2="178.997" y2="108.777" stroke="black"/>
<path d="M2 160.704L179.999 160" stroke="black"/>
<line x1="143.5" y1="58.9975" x2="144.505" y2="261.995" stroke="black"/>
<line x1="179.5" y1="58" x2="179.5" y2="262" stroke="black"/>
<line x1="1.5" y1="58.9982" x2="2.22597" y2="262.997" stroke="black"/>
<line x1="37.5" y1="58" x2="37.5" y2="262" stroke="black"/>
<line x1="72.5" y1="57.9986" x2="73.0862" y2="261.998" stroke="black"/>
<line x1="108.5" y1="57" x2="108.5" y2="262" stroke="black"/>
<line x1="1.00028" y1="82.5" x2="180" y2="82.5198" stroke="black" stroke-width="5"/>
<circle cx="37" cy="188" r="13" fill="black"/>
<path d="M36.3027 186.984H37.2051C37.6348 186.984 37.9531 186.877 38.1602 186.662C38.3672 186.447 38.4707 186.162 38.4707 185.807C38.4707 185.463 38.3672 185.195 38.1602 185.004C37.957 184.812 37.6758 184.717 37.3164 184.717C36.9922 184.717 36.7207 184.807 36.502 184.986C36.2832 185.162 36.1738 185.393 36.1738 185.678H34.4805C34.4805 185.232 34.5996 184.834 34.8379 184.482C35.0801 184.127 35.416 183.85 35.8457 183.65C36.2793 183.451 36.7559 183.352 37.2754 183.352C38.1777 183.352 38.8848 183.568 39.3965 184.002C39.9082 184.432 40.1641 185.025 40.1641 185.783C40.1641 186.174 40.0449 186.533 39.8066 186.861C39.5684 187.189 39.2559 187.441 38.8691 187.617C39.3496 187.789 39.707 188.047 39.9414 188.391C40.1797 188.734 40.2988 189.141 40.2988 189.609C40.2988 190.367 40.0215 190.975 39.4668 191.432C38.916 191.889 38.1855 192.117 37.2754 192.117C36.4238 192.117 35.7266 191.893 35.1836 191.443C34.6445 190.994 34.375 190.4 34.375 189.662H36.0684C36.0684 189.982 36.1875 190.244 36.4258 190.447C36.668 190.65 36.9648 190.752 37.3164 190.752C37.7188 190.752 38.0332 190.646 38.2598 190.436C38.4902 190.221 38.6055 189.938 38.6055 189.586C38.6055 188.734 38.1367 188.309 37.1992 188.309H36.3027V186.984Z" fill="#FEFEFE"/>
</svg>
 