<svg width="203" height="261" viewBox="0 0 203 261" fill="none" xmlns="http://www.w3.org/2000/svg">
<rect x="13" y="47" width="177" height="213" fill="#FEFEFE"/>
<line x1="12.0006" y1="52" x2="191.001" y2="52.0198" stroke="black" stroke-width="10"/>
<line x1="12.998" y1="260.48" x2="190.997" y2="259.777" stroke="black"/>
<line x1="12.998" y1="209.48" x2="190.997" y2="208.777" stroke="black"/>
<line x1="11.998" y1="107.48" x2="189.997" y2="106.777" stroke="black"/>
<path d="M13 158.704L190.999 158" stroke="black"/>
<line x1="154.5" y1="56.9975" x2="155.505" y2="259.995" stroke="black"/>
<line x1="190.5" y1="56" x2="190.5" y2="260" stroke="black"/>
<line x1="12.5" y1="56.9982" x2="13.226" y2="260.997" stroke="black"/>
<line x1="48.5" y1="56" x2="48.5" y2="260" stroke="black"/>
<line x1="83.5" y1="55.9986" x2="84.0862" y2="259.998" stroke="black"/>
<line x1="119.5" y1="55" x2="119.5" y2="260" stroke="black"/>
<circle cx="48" cy="132" r="13" fill="black"/>
<path d="M49.6934 136H48V129.473L45.9785 130.1V128.723L49.5117 127.457H49.6934V136Z" fill="#FEFEFE"/>
<circle cx="13" cy="184" r="13" fill="black"/>
<path d="M16.4277 188H10.5801V186.84L13.3398 183.898C13.7188 183.484 13.998 183.123 14.1777 182.814C14.3613 182.506 14.4531 182.213 14.4531 181.936C14.4531 181.557 14.3574 181.26 14.166 181.045C13.9746 180.826 13.7012 180.717 13.3457 180.717C12.9629 180.717 12.6602 180.85 12.4375 181.115C12.2188 181.377 12.1094 181.723 12.1094 182.152H10.4102C10.4102 181.633 10.5332 181.158 10.7793 180.729C11.0293 180.299 11.3809 179.963 11.834 179.721C12.2871 179.475 12.8008 179.352 13.375 179.352C14.2539 179.352 14.9355 179.562 15.4199 179.984C15.9082 180.406 16.1523 181.002 16.1523 181.771C16.1523 182.193 16.043 182.623 15.8242 183.061C15.6055 183.498 15.2305 184.008 14.6992 184.59L12.7598 186.635H16.4277V188Z" fill="#FEFEFE"/>
<circle cx="190" cy="184" r="13" fill="black"/>
<path d="M192.59 184.789H193.557V186.154H192.59V188H190.896V186.154H187.398L187.322 185.088L190.879 179.469H192.59V184.789ZM189.01 184.789H190.896V181.777L190.785 181.971L189.01 184.789Z" fill="#FEFEFE"/>
<circle cx="154" cy="184" r="13" fill="black"/>
<path d="M153.303 182.984H154.205C154.635 182.984 154.953 182.877 155.16 182.662C155.367 182.447 155.471 182.162 155.471 181.807C155.471 181.463 155.367 181.195 155.16 181.004C154.957 180.812 154.676 180.717 154.316 180.717C153.992 180.717 153.721 180.807 153.502 180.986C153.283 181.162 153.174 181.393 153.174 181.678H151.48C151.48 181.232 151.6 180.834 151.838 180.482C152.08 180.127 152.416 179.85 152.846 179.65C153.279 179.451 153.756 179.352 154.275 179.352C155.178 179.352 155.885 179.568 156.396 180.002C156.908 180.432 157.164 181.025 157.164 181.783C157.164 182.174 157.045 182.533 156.807 182.861C156.568 183.189 156.256 183.441 155.869 183.617C156.35 183.789 156.707 184.047 156.941 184.391C157.18 184.734 157.299 185.141 157.299 185.609C157.299 186.367 157.021 186.975 156.467 187.432C155.916 187.889 155.186 188.117 154.275 188.117C153.424 188.117 152.727 187.893 152.184 187.443C151.645 186.994 151.375 186.4 151.375 185.662H153.068C153.068 185.982 153.188 186.244 153.426 186.447C153.668 186.65 153.965 186.752 154.316 186.752C154.719 186.752 155.033 186.646 155.26 186.436C155.49 186.221 155.605 185.938 155.605 185.586C155.605 184.734 155.137 184.309 154.199 184.309H153.303V182.984Z" fill="#FEFEFE"/>
<path d="M112.535 29.7656C111.586 30.9023 110.244 31.7871 108.51 32.4199C106.775 33.041 104.854 33.3516 102.744 33.3516C100.529 33.3516 98.584 32.8711 96.9082 31.9102C95.2441 30.9375 93.9551 29.5312 93.041 27.6914C92.1387 25.8516 91.6758 23.6895 91.6523 21.2051V19.4648C91.6523 16.9102 92.0801 14.7012 92.9355 12.8379C93.8027 10.9629 95.0449 9.5332 96.6621 8.54883C98.291 7.55273 100.195 7.05469 102.375 7.05469C105.41 7.05469 107.783 7.78125 109.494 9.23438C111.205 10.6758 112.219 12.7793 112.535 15.5449H107.402C107.168 14.0801 106.646 13.0078 105.838 12.3281C105.041 11.6484 103.939 11.3086 102.533 11.3086C100.74 11.3086 99.375 11.9824 98.4375 13.3301C97.5 14.6777 97.0254 16.6816 97.0137 19.3418V20.9766C97.0137 23.6602 97.5234 25.6875 98.543 27.0586C99.5625 28.4297 101.057 29.1152 103.025 29.1152C105.006 29.1152 106.418 28.6934 107.262 27.8496V23.4375H102.463V19.5527H112.535V29.7656Z" fill="black"/>
</svg>
