<svg width="204" height="261" viewBox="0 0 204 261" fill="none" xmlns="http://www.w3.org/2000/svg">
<rect x="13" y="47" width="177" height="213" fill="#FEFEFE"/>
<line x1="12.0006" y1="52" x2="191.001" y2="52.0198" stroke="black" stroke-width="10"/>
<line x1="12.998" y1="260.48" x2="190.997" y2="259.777" stroke="black"/>
<line x1="12.998" y1="209.48" x2="190.997" y2="208.777" stroke="black"/>
<line x1="11.998" y1="107.48" x2="189.997" y2="106.777" stroke="black"/>
<path d="M13 158.704L190.999 158" stroke="black"/>
<line x1="154.5" y1="56.9975" x2="155.505" y2="259.995" stroke="black"/>
<line x1="190.5" y1="56" x2="190.5" y2="260" stroke="black"/>
<line x1="12.5" y1="56.9982" x2="13.226" y2="260.997" stroke="black"/>
<line x1="48.5" y1="56" x2="48.5" y2="260" stroke="black"/>
<line x1="83.5" y1="55.9986" x2="84.0862" y2="259.998" stroke="black"/>
<line x1="119.5" y1="55" x2="119.5" y2="260" stroke="black"/>
<circle cx="191" cy="81" r="13" fill="black"/>
<path d="M192.693 85H191V78.4727L188.979 79.0996V77.7227L192.512 76.457H192.693V85Z" fill="#FEFEFE"/>
<circle cx="52" cy="132" r="13" fill="black"/>
<path d="M55.4277 136H49.5801V134.84L52.3398 131.898C52.7188 131.484 52.998 131.123 53.1777 130.814C53.3613 130.506 53.4531 130.213 53.4531 129.936C53.4531 129.557 53.3574 129.26 53.166 129.045C52.9746 128.826 52.7012 128.717 52.3457 128.717C51.9629 128.717 51.6602 128.85 51.4375 129.115C51.2188 129.377 51.1094 129.723 51.1094 130.152H49.4102C49.4102 129.633 49.5332 129.158 49.7793 128.729C50.0293 128.299 50.3809 127.963 50.834 127.721C51.2871 127.475 51.8008 127.352 52.375 127.352C53.2539 127.352 53.9355 127.562 54.4199 127.984C54.9082 128.406 55.1523 129.002 55.1523 129.771C55.1523 130.193 55.043 130.623 54.8242 131.061C54.6055 131.498 54.2305 132.008 53.6992 132.59L51.7598 134.635H55.4277V136Z" fill="#FEFEFE"/>
<circle cx="13" cy="184" r="13" fill="black"/>
<path d="M12.3027 182.984H13.2051C13.6348 182.984 13.9531 182.877 14.1602 182.662C14.3672 182.447 14.4707 182.162 14.4707 181.807C14.4707 181.463 14.3672 181.195 14.1602 181.004C13.957 180.812 13.6758 180.717 13.3164 180.717C12.9922 180.717 12.7207 180.807 12.502 180.986C12.2832 181.162 12.1738 181.393 12.1738 181.678H10.4805C10.4805 181.232 10.5996 180.834 10.8379 180.482C11.0801 180.127 11.416 179.85 11.8457 179.65C12.2793 179.451 12.7559 179.352 13.2754 179.352C14.1777 179.352 14.8848 179.568 15.3965 180.002C15.9082 180.432 16.1641 181.025 16.1641 181.783C16.1641 182.174 16.0449 182.533 15.8066 182.861C15.5684 183.189 15.2559 183.441 14.8691 183.617C15.3496 183.789 15.707 184.047 15.9414 184.391C16.1797 184.734 16.2988 185.141 16.2988 185.609C16.2988 186.367 16.0215 186.975 15.4668 187.432C14.916 187.889 14.1855 188.117 13.2754 188.117C12.4238 188.117 11.7266 187.893 11.1836 187.443C10.6445 186.994 10.375 186.4 10.375 185.662H12.0684C12.0684 185.982 12.1875 186.244 12.4258 186.447C12.668 186.65 12.9648 186.752 13.3164 186.752C13.7188 186.752 14.0332 186.646 14.2598 186.436C14.4902 186.221 14.6055 185.938 14.6055 185.586C14.6055 184.734 14.1367 184.309 13.1992 184.309H12.3027V182.984Z" fill="#FEFEFE"/>
<path d="M101.535 29.7656C100.586 30.9023 99.2441 31.7871 97.5098 32.4199C95.7754 33.041 93.8535 33.3516 91.7441 33.3516C89.5293 33.3516 87.584 32.8711 85.9082 31.9102C84.2441 30.9375 82.9551 29.5312 82.041 27.6914C81.1387 25.8516 80.6758 23.6895 80.6523 21.2051V19.4648C80.6523 16.9102 81.0801 14.7012 81.9355 12.8379C82.8027 10.9629 84.0449 9.5332 85.6621 8.54883C87.291 7.55273 89.1953 7.05469 91.375 7.05469C94.4102 7.05469 96.7832 7.78125 98.4941 9.23438C100.205 10.6758 101.219 12.7793 101.535 15.5449H96.4023C96.168 14.0801 95.6465 13.0078 94.8379 12.3281C94.041 11.6484 92.9395 11.3086 91.5332 11.3086C89.7402 11.3086 88.375 11.9824 87.4375 13.3301C86.5 14.6777 86.0254 16.6816 86.0137 19.3418V20.9766C86.0137 23.6602 86.5234 25.6875 87.543 27.0586C88.5625 28.4297 90.0566 29.1152 92.0254 29.1152C94.0059 29.1152 95.418 28.6934 96.2617 27.8496V23.4375H91.4629V19.5527H101.535V29.7656ZM122.682 10.2539L112.785 33H107.424L117.338 11.5195H104.611V7.40625H122.682V10.2539Z" fill="black"/>
</svg>
