<svg width="203" height="261" viewBox="0 0 203 261" fill="none" xmlns="http://www.w3.org/2000/svg">
<rect x="13" y="47" width="177" height="213" fill="#FEFEFE"/>
<line x1="12.0006" y1="52" x2="191.001" y2="52.0198" stroke="black" stroke-width="10"/>
<line x1="12.998" y1="260.48" x2="190.997" y2="259.777" stroke="black"/>
<line x1="12.998" y1="209.48" x2="190.997" y2="208.777" stroke="black"/>
<line x1="11.998" y1="107.48" x2="189.997" y2="106.777" stroke="black"/>
<path d="M13 158.704L190.999 158" stroke="black"/>
<line x1="154.5" y1="56.9975" x2="155.505" y2="259.995" stroke="black"/>
<line x1="190.5" y1="56" x2="190.5" y2="260" stroke="black"/>
<line x1="12.5" y1="56.9982" x2="13.226" y2="260.997" stroke="black"/>
<line x1="48.5" y1="56" x2="48.5" y2="260" stroke="black"/>
<line x1="83.5" y1="55.9986" x2="84.0862" y2="259.998" stroke="black"/>
<line x1="119.5" y1="55" x2="119.5" y2="260" stroke="black"/>
<circle cx="13" cy="184" r="13" fill="black"/>
<path d="M14.6934 188H13V181.473L10.9785 182.1V180.723L14.5117 179.457H14.6934V188Z" fill="#FEFEFE"/>
<circle cx="119" cy="184" r="13" fill="black"/>
<path d="M122.428 188H116.58V186.84L119.34 183.898C119.719 183.484 119.998 183.123 120.178 182.814C120.361 182.506 120.453 182.213 120.453 181.936C120.453 181.557 120.357 181.26 120.166 181.045C119.975 180.826 119.701 180.717 119.346 180.717C118.963 180.717 118.66 180.85 118.438 181.115C118.219 181.377 118.109 181.723 118.109 182.152H116.41C116.41 181.633 116.533 181.158 116.779 180.729C117.029 180.299 117.381 179.963 117.834 179.721C118.287 179.475 118.801 179.352 119.375 179.352C120.254 179.352 120.936 179.562 121.42 179.984C121.908 180.406 122.152 181.002 122.152 181.771C122.152 182.193 122.043 182.623 121.824 183.061C121.605 183.498 121.23 184.008 120.699 184.59L118.76 186.635H122.428V188Z" fill="#FEFEFE"/>
<circle cx="190" cy="184" r="13" fill="black"/>
<path d="M192.59 184.789H193.557V186.154H192.59V188H190.896V186.154H187.398L187.322 185.088L190.879 179.469H192.59V184.789ZM189.01 184.789H190.896V181.777L190.785 181.971L189.01 184.789Z" fill="#FEFEFE"/>
<circle cx="155" cy="184" r="13" fill="black"/>
<path d="M154.303 182.984H155.205C155.635 182.984 155.953 182.877 156.16 182.662C156.367 182.447 156.471 182.162 156.471 181.807C156.471 181.463 156.367 181.195 156.16 181.004C155.957 180.812 155.676 180.717 155.316 180.717C154.992 180.717 154.721 180.807 154.502 180.986C154.283 181.162 154.174 181.393 154.174 181.678H152.48C152.48 181.232 152.6 180.834 152.838 180.482C153.08 180.127 153.416 179.85 153.846 179.65C154.279 179.451 154.756 179.352 155.275 179.352C156.178 179.352 156.885 179.568 157.396 180.002C157.908 180.432 158.164 181.025 158.164 181.783C158.164 182.174 158.045 182.533 157.807 182.861C157.568 183.189 157.256 183.441 156.869 183.617C157.35 183.789 157.707 184.047 157.941 184.391C158.18 184.734 158.299 185.141 158.299 185.609C158.299 186.367 158.021 186.975 157.467 187.432C156.916 187.889 156.186 188.117 155.275 188.117C154.424 188.117 153.727 187.893 153.184 187.443C152.645 186.994 152.375 186.4 152.375 185.662H154.068C154.068 185.982 154.188 186.244 154.426 186.447C154.668 186.65 154.965 186.752 155.316 186.752C155.719 186.752 156.033 186.646 156.26 186.436C156.49 186.221 156.605 185.938 156.605 185.586C156.605 184.734 156.137 184.309 155.199 184.309H154.303V182.984Z" fill="#FEFEFE"/>
<path d="M96.5352 29.7656C95.5859 30.9023 94.2441 31.7871 92.5098 32.4199C90.7754 33.041 88.8535 33.3516 86.7441 33.3516C84.5293 33.3516 82.584 32.8711 80.9082 31.9102C79.2441 30.9375 77.9551 29.5312 77.041 27.6914C76.1387 25.8516 75.6758 23.6895 75.6523 21.2051V19.4648C75.6523 16.9102 76.0801 14.7012 76.9355 12.8379C77.8027 10.9629 79.0449 9.5332 80.6621 8.54883C82.291 7.55273 84.1953 7.05469 86.375 7.05469C89.4102 7.05469 91.7832 7.78125 93.4941 9.23438C95.2051 10.6758 96.2188 12.7793 96.5352 15.5449H91.4023C91.168 14.0801 90.6465 13.0078 89.8379 12.3281C89.041 11.6484 87.9395 11.3086 86.5332 11.3086C84.7402 11.3086 83.375 11.9824 82.4375 13.3301C81.5 14.6777 81.0254 16.6816 81.0137 19.3418V20.9766C81.0137 23.6602 81.5234 25.6875 82.543 27.0586C83.5625 28.4297 85.0566 29.1152 87.0254 29.1152C89.0059 29.1152 90.418 28.6934 91.2617 27.8496V23.4375H86.4629V19.5527H96.5352V29.7656ZM105.254 13.9805L105.412 16.1074C106.76 14.4551 108.582 13.6289 110.879 13.6289C113.328 13.6289 115.01 14.5957 115.924 16.5293C117.26 14.5957 119.164 13.6289 121.637 13.6289C123.699 13.6289 125.234 14.2324 126.242 15.4395C127.25 16.6348 127.754 18.4395 127.754 20.8535V33H122.656V20.8711C122.656 19.793 122.445 19.0078 122.023 18.5156C121.602 18.0117 120.857 17.7598 119.791 17.7598C118.268 17.7598 117.213 18.4863 116.627 19.9395L116.645 33H111.564V20.8887C111.564 19.7871 111.348 18.9902 110.914 18.498C110.48 18.0059 109.742 17.7598 108.699 17.7598C107.258 17.7598 106.215 18.3574 105.57 19.5527V33H100.49V13.9805H105.254Z" fill="black"/>
</svg>
