<svg width="192" height="265" viewBox="0 0 192 265" fill="none" xmlns="http://www.w3.org/2000/svg">
<path d="M86.5352 29.7656C85.5859 30.9023 84.2441 31.7871 82.5098 32.4199C80.7754 33.041 78.8535 33.3516 76.7441 33.3516C74.5293 33.3516 72.584 32.8711 70.9082 31.9102C69.2441 30.9375 67.9551 29.5312 67.041 27.6914C66.1387 25.8516 65.6758 23.6895 65.6523 21.2051V19.4648C65.6523 16.9102 66.0801 14.7012 66.9355 12.8379C67.8027 10.9629 69.0449 9.5332 70.6621 8.54883C72.291 7.55273 74.1953 7.05469 76.375 7.05469C79.4102 7.05469 81.7832 7.78125 83.4941 9.23438C85.2051 10.6758 86.2188 12.7793 86.5352 15.5449H81.4023C81.168 14.0801 80.6465 13.0078 79.8379 12.3281C79.041 11.6484 77.9395 11.3086 76.5332 11.3086C74.7402 11.3086 73.375 11.9824 72.4375 13.3301C71.5 14.6777 71.0254 16.6816 71.0137 19.3418V20.9766C71.0137 23.6602 71.5234 25.6875 72.543 27.0586C73.5625 28.4297 75.0566 29.1152 77.0254 29.1152C79.0059 29.1152 80.418 28.6934 81.2617 27.8496V23.4375H76.4629V19.5527H86.5352V29.7656ZM95.2539 13.9805L95.4121 16.1074C96.7598 14.4551 98.582 13.6289 100.879 13.6289C103.328 13.6289 105.01 14.5957 105.924 16.5293C107.26 14.5957 109.164 13.6289 111.637 13.6289C113.699 13.6289 115.234 14.2324 116.242 15.4395C117.25 16.6348 117.754 18.4395 117.754 20.8535V33H112.656V20.8711C112.656 19.793 112.445 19.0078 112.023 18.5156C111.602 18.0117 110.857 17.7598 109.791 17.7598C108.268 17.7598 107.213 18.4863 106.627 19.9395L106.645 33H101.564V20.8887C101.564 19.7871 101.348 18.9902 100.914 18.498C100.48 18.0059 99.7422 17.7598 98.6992 17.7598C97.2578 17.7598 96.2148 18.3574 95.5703 19.5527V33H90.4902V13.9805H95.2539ZM138.865 10.2539L128.969 33H123.607L133.521 11.5195H120.795V7.40625H138.865V10.2539Z" fill="black"/>
<rect x="13" y="51" width="177" height="213" fill="#FEFEFE"/>
<line x1="12.0006" y1="56" x2="191.001" y2="56.0198" stroke="black" stroke-width="10"/>
<line x1="12.998" y1="264.48" x2="190.997" y2="263.777" stroke="black"/>
<line x1="12.998" y1="213.48" x2="190.997" y2="212.777" stroke="black"/>
<line x1="11.998" y1="111.48" x2="189.997" y2="110.777" stroke="black"/>
<path d="M13 162.704L190.999 162" stroke="black"/>
<line x1="154.5" y1="60.9975" x2="155.505" y2="263.995" stroke="black"/>
<line x1="190.5" y1="60" x2="190.5" y2="264" stroke="black"/>
<line x1="12.5" y1="60.9982" x2="13.226" y2="264.997" stroke="black"/>
<line x1="48.5" y1="60" x2="48.5" y2="264" stroke="black"/>
<line x1="83.5" y1="59.9986" x2="84.0862" y2="263.998" stroke="black"/>
<line x1="119.5" y1="59" x2="119.5" y2="264" stroke="black"/>
<circle cx="13" cy="188" r="13" fill="black"/>
<path d="M14.6934 192H13V185.473L10.9785 186.1V184.723L14.5117 183.457H14.6934V192Z" fill="#FEFEFE"/>
<circle cx="82" cy="188" r="13" fill="black"/>
<path d="M85.4277 192H79.5801V190.84L82.3398 187.898C82.7188 187.484 82.998 187.123 83.1777 186.814C83.3613 186.506 83.4531 186.213 83.4531 185.936C83.4531 185.557 83.3574 185.26 83.166 185.045C82.9746 184.826 82.7012 184.717 82.3457 184.717C81.9629 184.717 81.6602 184.85 81.4375 185.115C81.2188 185.377 81.1094 185.723 81.1094 186.152H79.4102C79.4102 185.633 79.5332 185.158 79.7793 184.729C80.0293 184.299 80.3809 183.963 80.834 183.721C81.2871 183.475 81.8008 183.352 82.375 183.352C83.2539 183.352 83.9355 183.562 84.4199 183.984C84.9082 184.406 85.1523 185.002 85.1523 185.771C85.1523 186.193 85.043 186.623 84.8242 187.061C84.6055 187.498 84.2305 188.008 83.6992 188.59L81.7598 190.635H85.4277V192Z" fill="#FEFEFE"/>
<circle cx="154" cy="188" r="13" fill="black"/>
<path d="M156.59 188.789H157.557V190.154H156.59V192H154.896V190.154H151.398L151.322 189.088L154.879 183.469H156.59V188.789ZM153.01 188.789H154.896V185.777L154.785 185.971L153.01 188.789Z" fill="#FEFEFE"/>
<circle cx="119" cy="188" r="13" fill="black"/>
<path d="M118.303 186.984H119.205C119.635 186.984 119.953 186.877 120.16 186.662C120.367 186.447 120.471 186.162 120.471 185.807C120.471 185.463 120.367 185.195 120.16 185.004C119.957 184.812 119.676 184.717 119.316 184.717C118.992 184.717 118.721 184.807 118.502 184.986C118.283 185.162 118.174 185.393 118.174 185.678H116.48C116.48 185.232 116.6 184.834 116.838 184.482C117.08 184.127 117.416 183.85 117.846 183.65C118.279 183.451 118.756 183.352 119.275 183.352C120.178 183.352 120.885 183.568 121.396 184.002C121.908 184.432 122.164 185.025 122.164 185.783C122.164 186.174 122.045 186.533 121.807 186.861C121.568 187.189 121.256 187.441 120.869 187.617C121.35 187.789 121.707 188.047 121.941 188.391C122.18 188.734 122.299 189.141 122.299 189.609C122.299 190.367 122.021 190.975 121.467 191.432C120.916 191.889 120.186 192.117 119.275 192.117C118.424 192.117 117.727 191.893 117.184 191.443C116.645 190.994 116.375 190.4 116.375 189.662H118.068C118.068 189.982 118.188 190.244 118.426 190.447C118.668 190.65 118.965 190.752 119.316 190.752C119.719 190.752 120.033 190.646 120.26 190.436C120.49 190.221 120.605 189.938 120.605 189.586C120.605 188.734 120.137 188.309 119.199 188.309H118.303V186.984Z" fill="#FEFEFE"/>
</svg>
